<svg width="1728" height="1783" viewBox="0 0 1728 1783" fill="none" xmlns="http://www.w3.org/2000/svg">
<rect x="-35" width="1784" height="1244" fill="url(#paint0_linear_136_66)"/>
<rect width="1784" height="1443" transform="matrix(1 0 0 -1 -61 1783)" fill="url(#paint1_linear_136_66)"/>
<g opacity="0.15" clip-path="url(#clip0_136_66)">
<mask id="mask0_136_66" style="mask-type:luminance" maskUnits="userSpaceOnUse" x="-5" y="203" width="1776" height="1209">
<path d="M1771 203.257H-5V1412H1771V203.257Z" fill="white"/>
</mask>
<g mask="url(#mask0_136_66)">
<g opacity="0.09">
<path d="M618.139 905.561C618.4 909.066 615.795 912.112 612.361 912.378C608.928 912.644 605.944 909.985 605.684 906.479C605.423 902.974 608.028 899.928 611.462 899.662C614.895 899.396 617.879 902.055 618.139 905.561Z" fill="white"/>
<path d="M1199.93 989.52C1200.19 993.025 1197.59 996.071 1194.16 996.337C1190.72 996.603 1187.74 993.944 1187.48 990.439C1187.22 986.933 1189.82 983.887 1193.26 983.621C1196.69 983.355 1199.67 986.015 1199.93 989.52Z" fill="white"/>
<path d="M901.968 947.262C902.276 951.638 899.055 955.458 894.769 955.772C890.483 956.086 886.742 952.798 886.434 948.423C886.126 944.047 889.346 940.227 893.632 939.913C897.918 939.599 901.66 942.887 901.968 947.262Z" fill="white"/>
<path d="M1186.84 1325.12C1187.15 1329.49 1183.93 1333.31 1179.64 1333.63C1175.35 1333.94 1171.61 1330.65 1171.3 1326.28C1171 1321.9 1174.22 1318.08 1178.5 1317.77C1182.79 1317.45 1186.53 1320.74 1186.84 1325.12Z" fill="white"/>
<path d="M677.694 1046.91C677.884 1049.55 675.942 1051.82 673.361 1052.01C670.78 1052.21 668.554 1050.22 668.365 1047.59C668.175 1044.95 670.117 1042.68 672.698 1042.49C675.279 1042.29 677.505 1044.28 677.694 1046.91Z" fill="white"/>
<path d="M383.4 1377.84C383.589 1380.48 381.647 1382.75 379.066 1382.94C376.485 1383.14 374.259 1381.15 374.07 1378.52C373.88 1375.88 375.822 1373.61 378.403 1373.42C380.984 1373.22 383.21 1375.21 383.4 1377.84Z" fill="white"/>
<path d="M908.622 1398.97C908.74 1400.73 907.461 1402.26 905.733 1402.38C904.004 1402.5 902.512 1401.19 902.394 1399.43C902.276 1397.66 903.554 1396.14 905.283 1396.02C907.012 1395.9 908.503 1397.2 908.622 1398.97Z" fill="white"/>
<path d="M1604.6 1162.15C1604.72 1163.92 1603.44 1165.44 1601.71 1165.56C1599.98 1165.68 1598.49 1164.38 1598.37 1162.61C1598.25 1160.85 1599.53 1159.32 1601.26 1159.2C1602.99 1159.08 1604.48 1160.39 1604.6 1162.15Z" fill="white"/>
<path d="M383.565 1007.02C383.684 1008.79 382.405 1010.31 380.676 1010.43C378.948 1010.55 377.456 1009.25 377.337 1007.48C377.219 1005.72 378.498 1004.19 380.226 1004.07C381.955 1003.95 383.447 1005.26 383.565 1007.02Z" fill="white"/>
<path d="M208.925 1134.11C209.091 1136.31 207.457 1138.22 205.326 1138.36C203.171 1138.53 201.3 1136.87 201.158 1134.69C200.992 1132.49 202.626 1130.58 204.758 1130.44C206.912 1130.27 208.783 1131.93 208.925 1134.11Z" fill="white"/>
<path d="M870.331 1102.83C870.521 1105.46 868.579 1107.74 865.998 1107.93C863.417 1108.12 861.191 1106.14 861.001 1103.5C860.812 1100.87 862.754 1098.6 865.335 1098.4C867.916 1098.21 870.142 1100.19 870.331 1102.83Z" fill="white"/>
<path d="M1666.86 1015.63C1667.07 1018.7 1664.82 1021.36 1661.81 1021.6C1658.8 1021.82 1656.2 1019.52 1655.96 1016.45C1655.75 1013.38 1658 1010.72 1661.01 1010.48C1664.01 1010.26 1666.62 1012.56 1666.86 1015.63Z" fill="white"/>
<path d="M647.502 1347.07C647.692 1349.7 645.75 1351.97 643.169 1352.17C640.588 1352.36 638.362 1350.38 638.173 1347.74C637.983 1345.11 639.925 1342.84 642.506 1342.64C645.087 1342.45 647.313 1344.43 647.502 1347.07Z" fill="white"/>
<path d="M1417.27 1129.25C1417.46 1131.89 1415.52 1134.16 1412.93 1134.35C1410.35 1134.55 1408.13 1132.56 1407.94 1129.93C1407.75 1127.29 1409.69 1125.02 1412.27 1124.83C1414.85 1124.63 1417.08 1126.62 1417.27 1129.25Z" fill="white"/>
<path d="M378.735 1378.18L611.912 906.02L673.03 1047.25L378.735 1378.18Z" stroke="white" stroke-width="0.25" stroke-miterlimit="10"/>
<path d="M673.029 1047.25L894.201 947.843L611.911 906.02" stroke="white" stroke-width="0.25" stroke-miterlimit="10"/>
<path d="M865.666 1103.17L1193.71 989.979L894.201 947.843L865.666 1103.17Z" stroke="white" stroke-width="0.25" stroke-miterlimit="10"/>
<path d="M642.838 1347.4L673.03 1048.99L865.666 1103.17L642.838 1347.4Z" stroke="white" stroke-width="0.25" stroke-miterlimit="10"/>
<path d="M1179.05 1325.7L865.666 1103.17L1412.6 1129.59L1179.05 1325.7Z" stroke="white" stroke-width="0.25" stroke-miterlimit="10"/>
<path d="M1172.75 452.596L1193.71 989.979L894.201 947.843L1172.75 452.596Z" stroke="white" stroke-width="0.25" stroke-miterlimit="10"/>
<path d="M1412.6 1129.59L1535.64 841.425L1193.71 989.979L1412.6 1129.59Z" stroke="white" stroke-width="0.25" stroke-miterlimit="10"/>
<path d="M380.463 1007.26L277.029 828.201L608.691 904.666" stroke="white" stroke-width="0.25" stroke-miterlimit="10"/>
<path d="M1172.75 452.596L867.774 803.494L894.201 947.843" stroke="white" stroke-width="0.25" stroke-miterlimit="10"/>
<path d="M1535.64 841.425L1500.31 432.41L1193.71 989.979" stroke="white" stroke-width="0.25" stroke-miterlimit="10"/>
<path d="M1412.6 1129.59L1601.5 1162.39L1179.05 1325.7L905.496 1399.19L865.666 1103.17" stroke="white" stroke-width="0.25" stroke-miterlimit="10"/>
<path d="M378.735 1378.18L381.505 1007.19L609.141 907.301" stroke="white" stroke-width="0.25" stroke-miterlimit="10"/>
<path d="M381.505 1007.19L205.042 1134.4L277.029 828.201L686.503 729.761L611.177 902.877" stroke="white" stroke-width="0.25" stroke-miterlimit="10"/>
<path d="M1536.95 843.19L1661.43 1016.04L1415.42 1128.72" stroke="white" stroke-width="0.25" stroke-miterlimit="10"/>
<path d="M380.724 1378.71L641.251 1348.98" stroke="white" stroke-width="0.25" stroke-miterlimit="10"/>
</g>
<g opacity="0.09">
<path d="M237.246 1078.05C237.436 1080.68 235.494 1082.96 232.913 1083.15C230.332 1083.34 228.106 1081.36 227.917 1078.73C227.727 1076.09 229.669 1073.82 232.25 1073.62C234.831 1073.43 237.057 1075.41 237.246 1078.05Z" fill="white"/>
<path d="M57.8704 1314.16C57.9888 1315.93 56.7101 1317.45 54.9815 1317.57C53.2528 1317.69 51.761 1316.39 51.6426 1314.62C51.5242 1312.86 52.8029 1311.34 54.5316 1311.22C56.2602 1311.09 57.752 1312.4 57.8704 1314.16Z" fill="white"/>
<path d="M615.44 1129.57C615.606 1131.77 613.972 1133.67 611.84 1133.82C609.709 1133.96 607.815 1132.32 607.673 1130.15C607.507 1127.95 609.141 1126.04 611.272 1125.89C613.427 1125.72 615.298 1127.39 615.44 1129.57Z" fill="white"/>
<path d="M728.085 1351.93C728.298 1355 726.049 1357.66 723.042 1357.9C720.034 1358.14 717.429 1355.82 717.193 1352.75C716.956 1349.68 719.229 1347.02 722.236 1346.78C725.244 1346.53 727.849 1348.86 728.085 1351.93Z" fill="white"/>
<path d="M232.581 1078.39L380.7 1500.87L81.1952 1458.73L232.581 1078.39Z" stroke="white" stroke-width="0.25" stroke-miterlimit="10"/>
<path d="M599.598 1640.5L722.639 1352.34L380.7 1500.87L599.598 1640.5Z" stroke="white" stroke-width="0.25" stroke-miterlimit="10"/>
<path d="M232.581 1078.39L54.7446 1314.41L81.1952 1458.73" stroke="white" stroke-width="0.25" stroke-miterlimit="10"/>
<path d="M722.639 1352.34L611.556 1129.86L380.7 1500.87" stroke="white" stroke-width="0.25" stroke-miterlimit="10"/>
<path d="M723.941 1354.1L848.404 1526.93L602.392 1639.63" stroke="white" stroke-width="0.25" stroke-miterlimit="10"/>
</g>
</g>
<mask id="mask1_136_66" style="mask-type:luminance" maskUnits="userSpaceOnUse" x="-5" y="203" width="1776" height="1209">
<path d="M1771 203.257H-5V1412H1771V203.257Z" fill="white"/>
</mask>
<g mask="url(#mask1_136_66)">
<g opacity="0.25">
<path d="M434.998 1205.89C438.171 1204.53 441.818 1206.03 443.167 1209.27C444.494 1212.51 443.025 1216.26 439.852 1217.61C436.679 1218.96 433.009 1217.46 431.683 1214.23C430.333 1210.99 431.825 1207.26 434.998 1205.89Z" fill="white"/>
<path d="M382.713 918.035C386.691 916.319 391.261 918.228 392.919 922.29C394.576 926.351 392.729 931.017 388.751 932.709C384.773 934.401 380.203 932.516 378.545 928.454C376.887 924.393 378.734 919.727 382.713 918.035Z" fill="white"/>
<path d="M547.052 1102.97C549.444 1101.96 552.167 1103.09 553.185 1105.51C554.203 1107.93 553.067 1110.73 550.699 1111.77C548.307 1112.79 545.584 1111.65 544.565 1109.23C543.547 1106.82 544.684 1104.01 547.052 1102.97Z" fill="white"/>
<path d="M948.451 1281.48C950.843 1280.46 953.566 1281.6 954.585 1284.02C955.603 1286.44 954.466 1289.24 952.098 1290.28C949.73 1291.32 946.983 1290.16 945.965 1287.74C944.97 1285.3 946.083 1282.52 948.451 1281.48Z" fill="white"/>
<path d="M259.079 994.258C260.666 993.581 262.489 994.331 263.152 995.95C263.815 997.57 263.081 999.432 261.495 1000.11C259.908 1000.79 258.085 1000.04 257.422 998.416C256.759 996.797 257.493 994.935 259.079 994.234V994.258Z" fill="white"/>
<path d="M604.334 1400.18C605.92 1399.5 607.744 1400.25 608.407 1401.87C609.07 1403.49 608.335 1405.35 606.749 1406.03C605.162 1406.71 603.339 1405.96 602.676 1404.34C602.013 1402.72 602.747 1400.86 604.334 1400.18Z" fill="white"/>
<path d="M57.4205 1292.29C59.4096 1291.44 61.6829 1292.38 62.5353 1294.41C63.3641 1296.44 62.4406 1298.77 60.4515 1299.64C58.4624 1300.48 56.1891 1299.54 55.3366 1297.51C54.5078 1295.48 55.4313 1293.16 57.4205 1292.29Z" fill="white"/>
<path d="M537.201 898.768C539.592 897.752 542.316 898.889 543.334 901.306C544.352 903.724 543.216 906.528 540.848 907.567C538.48 908.607 535.733 907.446 534.714 905.029C533.696 902.611 534.833 899.807 537.201 898.768Z" fill="white"/>
<path d="M835.237 1035.96C837.629 1034.94 840.352 1036.08 841.371 1038.5C842.389 1040.92 841.252 1043.72 838.884 1044.76C836.492 1045.78 833.769 1044.64 832.751 1042.22C831.756 1039.78 832.869 1037 835.237 1035.96Z" fill="white"/>
<path d="M950.251 1285.88L437.437 1211.74L548.875 1107.37L950.251 1285.88Z" stroke="white" stroke-width="0.25" stroke-miterlimit="10"/>
<path d="M548.875 1107.37L385.744 925.36L437.437 1211.74" stroke="white" stroke-width="0.25" stroke-miterlimit="10"/>
<path d="M539.024 903.167L328.841 622.231L385.744 925.36L539.024 903.167Z" stroke="white" stroke-width="0.25" stroke-miterlimit="10"/>
<path d="M837.061 1040.36L550.485 1106.82L539.024 903.167L837.061 1040.36Z" stroke="white" stroke-width="0.25" stroke-miterlimit="10"/>
<path d="M645.016 528.771L539.024 903.167L388.23 365.784L645.016 528.771Z" stroke="white" stroke-width="0.25" stroke-miterlimit="10"/>
<path d="M-15.6797 900.871L328.841 622.231L385.744 925.36L-15.6797 900.871Z" stroke="white" stroke-width="0.25" stroke-miterlimit="10"/>
<path d="M605.541 1403.13L472.578 1560.53L437.2 1215.29" stroke="white" stroke-width="0.25" stroke-miterlimit="10"/>
<path d="M-15.6797 900.871L260.311 997.184L385.744 925.36" stroke="white" stroke-width="0.25" stroke-miterlimit="10"/>
<path d="M388.23 365.784L358.109 172.603L645.016 528.771L800.901 769.746L539.024 903.167" stroke="white" stroke-width="0.25" stroke-miterlimit="10"/>
<path d="M950.251 1285.88L605.139 1402.14L439.497 1214.03" stroke="white" stroke-width="0.25" stroke-miterlimit="10"/>
<path d="M605.139 1402.14L779.731 1532L472.578 1560.53L58.9359 1295.96L434.761 1213.48" stroke="white" stroke-width="0.25" stroke-miterlimit="10"/>
<path d="M950.109 1283.8L839.026 1041.4" stroke="white" stroke-width="0.25" stroke-miterlimit="10"/>
</g>
<g opacity="0.25">
<path d="M1274.74 1366.48C1275.73 1369.84 1273.89 1373.39 1270.59 1374.43C1267.3 1375.47 1263.82 1373.56 1262.8 1370.2C1261.79 1366.84 1263.66 1363.29 1266.95 1362.25C1270.24 1361.23 1273.72 1363.12 1274.74 1366.48Z" fill="white"/>
<path d="M1560.6 1343.2C1561.86 1347.4 1559.54 1351.85 1555.42 1353.13C1551.3 1354.42 1546.94 1352.05 1545.68 1347.84C1544.43 1343.63 1546.75 1339.19 1550.87 1337.9C1554.99 1336.62 1559.35 1338.99 1560.6 1343.2Z" fill="white"/>
<path d="M1623.07 939.043C1623.83 941.557 1622.43 944.241 1619.95 944.99C1617.48 945.764 1614.85 944.337 1614.12 941.799C1613.36 939.285 1614.76 936.601 1617.25 935.852C1619.71 935.078 1622.34 936.505 1623.07 939.043Z" fill="white"/>
<path d="M1499.15 1209.78C1499.65 1211.47 1498.73 1213.23 1497.07 1213.74C1495.41 1214.25 1493.68 1213.31 1493.19 1211.61C1492.69 1209.92 1493.61 1208.16 1495.27 1207.65C1496.93 1207.14 1498.66 1208.08 1499.15 1209.78Z" fill="white"/>
<path d="M929.058 1366.7C929.673 1368.8 928.513 1371.02 926.453 1371.65C924.393 1372.28 922.214 1371.1 921.598 1368.99C920.983 1366.89 922.143 1364.67 924.203 1364.04C926.263 1363.41 928.442 1364.59 929.058 1366.7Z" fill="white"/>
<path d="M1229.68 974.121C1230.29 976.224 1229.13 978.448 1227.07 979.077C1225.01 979.705 1222.83 978.52 1222.22 976.417C1221.6 974.314 1222.76 972.09 1224.82 971.461C1226.88 970.833 1229.06 972.017 1229.68 974.121Z" fill="white"/>
<path d="M1143.41 1881.38L1268.77 1368.32L1358.92 1492.31L1143.41 1881.38Z" stroke="white" stroke-width="0.25" stroke-miterlimit="10"/>
<path d="M1358.92 1492.31L1553.14 1345.52L1268.77 1368.32" stroke="white" stroke-width="0.25" stroke-miterlimit="10"/>
<path d="M1558.87 1503.45L1854.38 1319.14L1553.14 1345.52L1558.87 1503.45Z" stroke="white" stroke-width="0.25" stroke-miterlimit="10"/>
<path d="M1912.65 1649.88L1558.87 1503.45L2098.07 1406L1912.65 1649.88Z" stroke="white" stroke-width="0.25" stroke-miterlimit="10"/>
<path d="M1618.6 940.445L1854.38 1319.14L1553.14 1345.52L1618.6 940.445Z" stroke="white" stroke-width="0.25" stroke-miterlimit="10"/>
<path d="M1064.91 1519.19L925.34 1367.86L1265.34 1367.74" stroke="white" stroke-width="0.25" stroke-miterlimit="10"/>
<path d="M1618.6 940.445L1496.17 1210.7L1553.14 1345.52" stroke="white" stroke-width="0.25" stroke-miterlimit="10"/>
<path d="M2098.07 1406L2289.38 1395.44L1912.65 1649.88L1661.72 1783.2L1558.87 1503.45" stroke="white" stroke-width="0.25" stroke-miterlimit="10"/>
<path d="M1143.41 1881.38L1065.9 1518.9L1266.33 1370.18" stroke="white" stroke-width="0.25" stroke-miterlimit="10"/>
<path d="M1065.9 1518.9L921.291 1682.71L925.34 1367.86L1225.96 975.281L1267.37 1365.44" stroke="white" stroke-width="0.25" stroke-miterlimit="10"/>
</g>
</g>
<mask id="mask2_136_66" style="mask-type:luminance" maskUnits="userSpaceOnUse" x="-5" y="203" width="1776" height="1209">
<path d="M1771 203.257H-5V1412H1771V203.257Z" fill="white"/>
</mask>
<g mask="url(#mask2_136_66)">
<g opacity="0.51">
<path d="M481.174 1166.65C478.214 1169.62 473.431 1169.55 470.542 1166.53C467.653 1163.51 467.7 1158.62 470.66 1155.67C473.62 1152.7 478.403 1152.77 481.292 1155.79C484.205 1158.82 484.134 1163.7 481.174 1166.65Z" fill="white"/>
<path d="M287.282 853.512C283.564 857.211 277.621 857.163 273.974 853.367C270.351 849.572 270.398 843.504 274.116 839.781C277.834 836.082 283.777 836.13 287.424 839.926C291.047 843.721 291 849.789 287.282 853.512Z" fill="white"/>
<path d="M168.148 1415.67C164.43 1419.37 158.487 1419.32 154.84 1415.53C151.217 1411.73 151.264 1405.67 154.982 1401.94C158.7 1398.24 164.643 1398.29 168.29 1402.09C171.913 1405.88 171.866 1411.95 168.148 1415.67Z" fill="white"/>
<path d="M580.18 954.442C583.293 954.442 585.816 951.866 585.816 948.689C585.816 945.511 583.293 942.935 580.18 942.935C577.068 942.935 574.544 945.511 574.544 948.689C574.544 951.866 577.068 954.442 580.18 954.442Z" fill="white"/>
<path d="M900.357 1187.68C898.51 1189.54 895.527 1189.49 893.703 1187.61C891.88 1185.72 891.927 1182.68 893.774 1180.82C895.621 1178.95 898.605 1179 900.428 1180.89C902.252 1182.77 902.204 1185.82 900.357 1187.68Z" fill="white"/>
<path d="M122.256 944.893C120.03 947.117 116.455 947.069 114.276 944.797C112.097 942.524 112.145 938.874 114.371 936.65C116.597 934.426 120.172 934.474 122.351 936.746C124.529 939.019 124.482 942.669 122.256 944.893Z" fill="white"/>
<path d="M880.845 1371.89C878.24 1374.48 874.073 1374.43 871.539 1371.8C869.005 1369.14 869.053 1364.88 871.634 1362.3C874.238 1359.71 878.406 1359.76 880.94 1362.39C883.474 1365.05 883.426 1369.31 880.845 1371.89Z" fill="white"/>
<path d="M118.302 940.759L475.917 1161.16L280.699 846.647L118.302 940.759Z" stroke="white" stroke-width="0.25" stroke-miterlimit="10"/>
<path d="M-275.615 921.371L17.2118 717.384L118.302 940.759L-275.615 921.371Z" stroke="white" stroke-width="0.25" stroke-miterlimit="10"/>
<path d="M161.565 1408.81L118.302 940.76L520.388 1475.77L161.565 1408.81Z" stroke="white" stroke-width="0.25" stroke-miterlimit="10"/>
<path d="M580.18 948.689L475.917 1161.16L280.699 846.647L580.18 948.689Z" stroke="white" stroke-width="0.25" stroke-miterlimit="10"/>
<path d="M520.388 1475.77L876.251 1367.08L475.917 1161.16L520.388 1475.77Z" stroke="white" stroke-width="0.25" stroke-miterlimit="10"/>
<path d="M580.18 948.689L390.385 709.382L280.699 846.647" stroke="white" stroke-width="0.25" stroke-miterlimit="10"/>
<path d="M876.251 1367.08L897.066 1184.25L475.917 1161.16" stroke="white" stroke-width="0.25" stroke-miterlimit="10"/>
<path d="M520.388 1475.77L637.888 1678.96L161.565 1408.81L-117.788 1208.76L118.302 940.76" stroke="white" stroke-width="0.25" stroke-miterlimit="10"/>
<path d="M875.659 1369.69L816.625 1621.35L523.348 1477.73" stroke="white" stroke-width="0.25" stroke-miterlimit="10"/>
</g>
</g>
<mask id="mask3_136_66" style="mask-type:luminance" maskUnits="userSpaceOnUse" x="-5" y="203" width="1776" height="1209">
<path d="M1771 203.257H-5V1412H1771V203.257Z" fill="white"/>
</mask>
<g mask="url(#mask3_136_66)">
<path d="M1309.24 1039.71C1314.47 1039.71 1318.71 1035.38 1318.71 1030.04C1318.71 1024.7 1314.47 1020.37 1309.24 1020.37C1304.01 1020.37 1299.77 1024.7 1299.77 1030.04C1299.77 1035.38 1304.01 1039.71 1309.24 1039.71Z" fill="white"/>
<path d="M860.102 944.627C866.641 944.627 871.942 939.216 871.942 932.54C871.942 925.864 866.641 920.453 860.102 920.453C853.563 920.453 848.262 925.864 848.262 932.54C848.262 939.216 853.563 944.627 860.102 944.627Z" fill="white"/>
<path d="M514.374 1065.5C518.297 1065.5 521.478 1062.25 521.478 1058.25C521.478 1054.24 518.297 1051 514.374 1051C510.45 1051 507.27 1054.24 507.27 1058.25C507.27 1062.25 510.45 1065.5 514.374 1065.5Z" fill="white"/>
<path d="M75.5121 969.6C78.1277 969.6 80.2481 967.435 80.2481 964.765C80.2481 962.095 78.1277 959.93 75.5121 959.93C72.8965 959.93 70.7761 962.095 70.7761 964.765C70.7761 967.435 72.8965 969.6 75.5121 969.6Z" fill="white"/>
<path d="M800.12 1171.87C804.043 1171.87 807.224 1168.62 807.224 1164.62C807.224 1160.61 804.043 1157.37 800.12 1157.37C796.197 1157.37 793.016 1160.61 793.016 1164.62C793.016 1168.62 796.197 1171.87 800.12 1171.87Z" fill="white"/>
<path d="M1625.77 1273.41C1629.69 1273.41 1632.87 1270.16 1632.87 1266.15C1632.87 1262.15 1629.69 1258.9 1625.77 1258.9C1621.85 1258.9 1618.67 1262.15 1618.67 1266.15C1618.67 1270.16 1621.85 1273.41 1625.77 1273.41Z" fill="white"/>
<path d="M32.8881 1526.42L437.035 837.436L514.373 1058.25L32.8881 1526.42Z" stroke="white" stroke-width="0.25" stroke-miterlimit="10"/>
<path d="M514.373 1058.25L860.101 932.54L437.035 837.436" stroke="white" stroke-width="0.25" stroke-miterlimit="10"/>
<path d="M800.12 1164.62L1309.24 1030.04L860.102 932.54L800.12 1164.62Z" stroke="white" stroke-width="0.25" stroke-miterlimit="10"/>
<path d="M436.23 1509.5L514.184 1060.86L800.12 1164.62L436.23 1509.5Z" stroke="white" stroke-width="0.25" stroke-miterlimit="10"/>
<path d="M1250.82 1536.91L800.12 1164.62L1625.77 1266.15L1250.82 1536.91Z" stroke="white" stroke-width="0.25" stroke-miterlimit="10"/>
<path d="M1213.74 747.191L1309.24 1030.04L860.102 932.54L1213.74 747.191Z" stroke="white" stroke-width="0.25" stroke-miterlimit="10"/>
<path d="M1625.77 1266.15L1843.22 843.48L1309.24 1030.04L1625.77 1266.15Z" stroke="white" stroke-width="0.25" stroke-miterlimit="10"/>
<path d="M75.5121 964.765L-61.8319 681.919L432.299 835.019" stroke="white" stroke-width="0.25" stroke-miterlimit="10"/>
<path d="M1213.74 747.191L731.448 658.953L860.102 932.54" stroke="white" stroke-width="0.25" stroke-miterlimit="10"/>
<path d="M1843.22 843.48L1700.36 663.377L1309.24 1030.04" stroke="white" stroke-width="0.25" stroke-miterlimit="10"/>
<path d="M1625.77 1266.15L1908.34 1337.06L1250.82 1536.91L828.536 1617.49L800.12 1164.62" stroke="white" stroke-width="0.25" stroke-miterlimit="10"/>
<path d="M32.8881 1526.42L77.0986 964.765L432.678 839.056" stroke="white" stroke-width="0.25" stroke-miterlimit="10"/>
<path d="M77.0986 964.765L-203.912 1137.62L-61.832 681.919L372.696 558.627L436.23 832.601" stroke="white" stroke-width="0.25" stroke-miterlimit="10"/>
<path d="M1845 846.308L2014.9 1122.1L1630.1 1265.14" stroke="white" stroke-width="0.25" stroke-miterlimit="10"/>
</g>
</g>
<defs>
<linearGradient id="paint0_linear_136_66" x1="857" y1="0" x2="857" y2="231.5" gradientUnits="userSpaceOnUse">
<stop stop-color="#000A4C" stop-opacity="0"/>
<stop offset="1" stop-color="#000A4C"/>
</linearGradient>
<linearGradient id="paint1_linear_136_66" x1="892" y1="-49.2632" x2="892" y2="422.617" gradientUnits="userSpaceOnUse">
<stop stop-color="#000A4C" stop-opacity="0"/>
<stop offset="1" stop-color="#000A4C"/>
</linearGradient>
<clipPath id="clip0_136_66">
<rect width="1776" height="560" fill="white" transform="translate(-5 852)"/>
</clipPath>
</defs>
</svg>
