<svg width="88" height="40" viewBox="0 0 88 40" fill="none" xmlns="http://www.w3.org/2000/svg">
<rect width="88" height="40" rx="20" fill="#000A4C"/>
<path d="M40 18.5C39.1716 18.5 38.5 19.1716 38.5 20C38.5 20.8284 39.1716 21.5 40 21.5L40 18.5ZM75.0607 21.0607C75.6464 20.4749 75.6464 19.5251 75.0607 18.9393L65.5147 9.3934C64.9289 8.80761 63.9792 8.80761 63.3934 9.3934C62.8076 9.97918 62.8076 10.9289 63.3934 11.5147L71.8787 20L63.3934 28.4853C62.8076 29.0711 62.8076 30.0208 63.3934 30.6066C63.9792 31.1924 64.9289 31.1924 65.5147 30.6066L75.0607 21.0607ZM40 21.5L74 21.5L74 18.5L40 18.5L40 21.5Z" fill="white"/>
</svg>
