<svg width="87" height="49" viewBox="0 0 87 49" fill="none" xmlns="http://www.w3.org/2000/svg">
<rect width="87" height="49" rx="24.5" fill="#462185"/>
<path d="M38 23.5C37.1716 23.5 36.5 24.1716 36.5 25C36.5 25.8284 37.1716 26.5 38 26.5L38 23.5ZM73.0607 26.0607C73.6464 25.4749 73.6464 24.5251 73.0607 23.9393L63.5147 14.3934C62.9289 13.8076 61.9792 13.8076 61.3934 14.3934C60.8076 14.9792 60.8076 15.9289 61.3934 16.5147L69.8787 25L61.3934 33.4853C60.8076 34.0711 60.8076 35.0208 61.3934 35.6066C61.9792 36.1924 62.9289 36.1924 63.5147 35.6066L73.0607 26.0607ZM38 26.5L72 26.5L72 23.5L38 23.5L38 26.5Z" fill="white"/>
</svg>
