<svg width="79" height="78" viewBox="0 0 79 78" fill="none" xmlns="http://www.w3.org/2000/svg">
<path d="M39.5 78C61.3152 78 79 60.5391 79 39C79 17.4609 61.3152 0 39.5 0C17.6848 0 0 17.4609 0 39C0 60.5391 17.6848 78 39.5 78Z" fill="#F7931A"/>
<path d="M57.2478 34.1738C58.023 29.0648 54.0804 26.3177 48.6936 24.4847L50.4415 17.5622L46.1755 16.5141L44.4721 23.2537C43.3512 22.9759 42.2008 22.7175 41.0528 22.4591L42.7686 15.6756L38.5026 14.625L36.7547 21.5451C35.8265 21.3354 34.9131 21.1307 34.0293 20.9113L34.0342 20.8894L28.1487 19.4391L27.0131 23.9387C27.0131 23.9387 30.1805 24.6553 30.1138 24.6992C31.8419 25.1258 32.153 26.2543 32.1012 27.1513L30.1113 35.0366C30.2298 35.0659 30.3829 35.1097 30.5557 35.1756L30.1039 35.0659L27.3143 46.1126C27.1019 46.6294 26.5662 47.4069 25.3565 47.112C25.401 47.1729 22.2558 46.3491 22.2558 46.3491L20.1376 51.1704L25.6923 52.5379C26.7242 52.7938 27.7364 53.0619 28.7313 53.313L26.9662 60.3135L31.2297 61.3616L32.9776 54.4391C34.1428 54.7487 35.2735 55.0363 36.3795 55.3093L34.6366 62.2026L38.9026 63.2507L40.6677 56.2648C47.9456 57.6249 53.4163 57.0765 55.7197 50.5781C57.5762 45.3473 55.6283 42.3272 51.7993 40.3601C54.589 39.7264 56.6874 37.9153 57.2478 34.1738ZM47.4963 47.6726C46.1804 52.9059 37.2559 50.076 34.3625 49.3667L36.7078 40.092C39.6012 40.8062 48.8763 42.2175 47.4963 47.6726ZM48.8171 34.0982C47.6148 38.8586 40.1888 36.4382 37.7817 35.8459L39.9049 27.4365C42.3119 28.0288 50.0712 29.133 48.8171 34.0982Z" fill="white"/>
</svg>
