<svg width="13" height="13" viewBox="0 0 13 13" fill="none" xmlns="http://www.w3.org/2000/svg">
<path d="M0 1.61533C0 1.18435 0.171205 0.771024 0.475951 0.466277C0.780698 0.161531 1.19402 -0.00967407 1.625 -0.00967407L8.125 -0.00967407C8.55598 -0.00967407 8.9693 0.161531 9.27405 0.466277C9.57879 0.771024 9.75 1.18435 9.75 1.61533V3.24033H11.375C11.806 3.24033 12.2193 3.41153 12.524 3.71628C12.8288 4.02102 13 4.43435 13 4.86533V11.3653C13 11.7963 12.8288 12.2096 12.524 12.5144C12.2193 12.8191 11.806 12.9903 11.375 12.9903H4.875C4.44402 12.9903 4.0307 12.8191 3.72595 12.5144C3.4212 12.2096 3.25 11.7963 3.25 11.3653V9.74033H1.625C1.19402 9.74033 0.780698 9.56912 0.475951 9.26437C0.171205 8.95963 0 8.5463 0 8.11533V1.61533ZM4.0625 9.74033V11.3653C4.0625 11.5808 4.1481 11.7875 4.30048 11.9398C4.45285 12.0922 4.65951 12.1778 4.875 12.1778H11.375C11.5905 12.1778 11.7972 12.0922 11.9495 11.9398C12.1019 11.7875 12.1875 11.5808 12.1875 11.3653V4.86533C12.1875 4.64984 12.1019 4.44318 11.9495 4.2908C11.7972 4.13843 11.5905 4.05283 11.375 4.05283H9.75V8.11533C9.75 8.5463 9.57879 8.95963 9.27405 9.26437C8.9693 9.56912 8.55598 9.74033 8.125 9.74033H4.0625ZM8.9375 3.24033V1.61533C8.9375 1.39984 8.8519 1.19317 8.69952 1.0408C8.54715 0.888428 8.34049 0.802826 8.125 0.802826H1.625C1.40951 0.802826 1.20285 0.888428 1.05048 1.0408C0.898102 1.19317 0.8125 1.39984 0.8125 1.61533V8.11533C0.8125 8.33081 0.898102 8.53748 1.05048 8.68985C1.20285 8.84222 1.40951 8.92783 1.625 8.92783H3.25V4.86533C3.25 4.43435 3.4212 4.02102 3.72595 3.71628C4.0307 3.41153 4.44402 3.24033 4.875 3.24033H8.9375Z" fill="white"/>
</svg>
