<svg width="79" height="78" viewBox="0 0 79 78" fill="none" xmlns="http://www.w3.org/2000/svg">
<g clip-path="url(#clip0_207_76)">
<path d="M39.5 78C61.3153 78 79 60.5391 79 39C79 17.4609 61.3153 0 39.5 0C17.6848 0 0 17.4609 0 39C0 60.5391 17.6848 78 39.5 78Z" fill="#627EEA"/>
<path d="M40.7294 9.75V31.3706L59.2377 39.5362L40.7294 9.75Z" fill="white" fill-opacity="0.602"/>
<path d="M40.7294 9.75L22.2188 39.5362L40.7294 31.3706V9.75Z" fill="white"/>
<path d="M40.7294 53.547V68.2378L59.25 42.939L40.7294 53.547Z" fill="white" fill-opacity="0.602"/>
<path d="M40.7294 68.2378V53.5446L22.2188 42.939L40.7294 68.2378Z" fill="white"/>
<path d="M40.7294 50.1467L59.2377 39.5362L40.7294 31.3755V50.1467Z" fill="white" fill-opacity="0.2"/>
<path d="M22.2188 39.5362L40.7294 50.1467V31.3755L22.2188 39.5362Z" fill="white" fill-opacity="0.602"/>
</g>
<defs>
<clipPath id="clip0_207_76">
<rect width="79" height="78" fill="white"/>
</clipPath>
</defs>
</svg>
