<svg width="44" height="44" viewBox="0 0 44 44" fill="none" xmlns="http://www.w3.org/2000/svg">
<path d="M0 22C0 16.1652 2.31785 10.5695 6.44365 6.44365C10.5695 2.31785 16.1652 0 22 0C27.8348 0 33.4305 2.31785 37.5564 6.44365C41.6821 10.5695 44 16.1652 44 22C44 27.8348 41.6821 33.4305 37.5564 37.5564C33.4305 41.6821 27.8348 44 22 44C16.1652 44 10.5695 41.6821 6.44365 37.5564C2.31785 33.4305 0 27.8348 0 22ZM20.625 2.96175C18.7825 3.52275 16.9537 5.21675 15.4358 8.063C15.0416 8.80183 14.6795 9.60117 14.3495 10.461C16.2882 10.8927 18.3975 11.1678 20.625 11.2502V2.96175ZM11.6847 9.73225C12.0771 8.67442 12.518 7.68625 13.0075 6.76775C13.4861 5.87048 14.0351 5.01254 14.6493 4.202C12.3077 5.17156 10.1807 6.59393 8.39025 8.3875C9.38758 8.89533 10.4858 9.34175 11.6847 9.73225ZM9.64975 20.625C9.74875 17.6825 10.1667 14.8857 10.8488 12.353C9.35947 11.8788 7.91845 11.2647 6.545 10.5188C4.3542 13.4592 3.05415 16.967 2.7995 20.625H9.64975ZM13.4998 13.0872C12.8504 15.5504 12.4814 18.079 12.3997 20.625H20.625V14.0002C18.1225 13.9178 15.7218 13.6015 13.4998 13.0872ZM23.375 13.9975V20.625H31.5975C31.5167 18.0791 31.1486 15.5505 30.5002 13.0872C28.2782 13.6015 25.8775 13.9122 23.375 13.9975ZM12.4025 23.375C12.4988 26.0893 12.8865 28.6385 13.4998 30.9127C15.8401 30.3814 18.2262 30.0766 20.625 30.0025V23.375H12.4025ZM23.375 23.375V29.9998C25.8775 30.0823 28.2782 30.3985 30.5002 30.9127C31.1135 28.6385 31.5012 26.0893 31.6002 23.375H23.375ZM14.3495 33.539C14.6795 34.3988 15.0416 35.1982 15.4358 35.937C16.9537 38.7832 18.7852 40.4745 20.625 41.0382V32.7525C18.3975 32.835 16.2882 33.1073 14.3495 33.539ZM14.652 39.798C14.0369 38.9876 13.487 38.1296 13.0075 37.2322C12.5021 36.2732 12.0602 35.282 11.6847 34.265C10.5536 34.6288 9.45213 35.0793 8.39025 35.6125C10.1807 37.4061 12.3105 38.8284 14.652 39.798ZM10.8488 31.647C10.1357 28.9442 9.73255 26.169 9.647 23.375H2.7995C3.05415 27.033 4.3542 30.5408 6.545 33.4813C7.8375 32.7718 9.28125 32.1558 10.8488 31.647ZM29.3508 39.798C31.691 38.8289 33.8171 37.4075 35.607 35.6152C34.546 35.0821 33.4455 34.6316 32.3153 34.2678C31.9397 35.2838 31.4978 36.2741 30.9925 37.2322C30.5139 38.1295 29.9649 38.9875 29.3508 39.798ZM23.375 32.7498V41.0382C25.2175 40.4773 27.0462 38.7832 28.5642 35.937C28.9602 35.1982 29.3223 34.3988 29.6505 33.539C27.587 33.0861 25.4864 32.8201 23.375 32.7498ZM33.1512 31.647C34.7188 32.1558 36.1625 32.7718 37.455 33.4813C39.6458 30.5408 40.9459 27.033 41.2005 23.375H34.353C34.2675 26.169 33.8643 28.9442 33.1512 31.647ZM41.2005 20.625C40.9459 16.967 39.6458 13.4592 37.455 10.5188C36.1625 11.2282 34.7188 11.8443 33.1512 12.353C33.8332 14.883 34.2512 17.6825 34.353 20.625H41.2005ZM30.9925 6.76775C31.4802 7.68808 31.922 8.67625 32.318 9.73225C33.4473 9.36822 34.5469 8.91772 35.607 8.38475C33.8168 6.59345 31.6908 5.17299 29.3508 4.20475C29.9503 4.983 30.5002 5.8465 30.9925 6.76775ZM29.6505 10.461C29.3366 9.6407 28.9739 8.83993 28.5642 8.063C27.0462 5.21675 25.2175 3.5255 23.375 2.96175V11.2475C25.6025 11.165 27.7117 10.8927 29.6505 10.461Z" fill="white"/>
</svg>
