<svg width="56" height="56" viewBox="0 0 56 56" fill="none" xmlns="http://www.w3.org/2000/svg">
<path d="M56 28C56 43.464 43.464 56 28 56C12.536 56 0 43.464 0 28C0 12.536 12.536 0 28 0C43.464 0 56 12.536 56 28Z" fill="white"/>
<path d="M27.3913 9.73913C22.6009 9.73913 21.9986 9.7612 20.1164 9.84504C18.2342 9.9333 16.9522 10.229 15.8291 10.6659C14.6505 11.1079 13.5832 11.8031 12.7025 12.7025C11.8031 13.5832 11.1079 14.6505 10.6659 15.8291C10.229 16.95 9.9311 18.2342 9.84504 20.1098C9.7612 21.9964 9.73913 22.5965 9.73913 27.3935C9.73913 32.1861 9.7612 32.7862 9.84504 34.6684C9.9333 36.5484 10.229 37.8304 10.6659 38.9535C11.1182 40.1141 11.7206 41.0982 12.7025 42.0801C13.6822 43.062 14.6663 43.6666 15.8269 44.1167C16.9522 44.5536 18.232 44.8515 20.112 44.9376C21.9964 45.0214 22.5965 45.0435 27.3913 45.0435C32.1861 45.0435 32.784 45.0214 34.6684 44.9376C36.5462 44.8493 37.8326 44.5536 38.9557 44.1167C40.1335 43.6744 41.2 42.9792 42.0801 42.0801C43.062 41.0982 43.6644 40.1141 44.1167 38.9535C44.5514 37.8304 44.8493 36.5484 44.9376 34.6684C45.0214 32.7862 45.0435 32.1861 45.0435 27.3913C45.0435 22.5965 45.0214 21.9964 44.9376 20.112C44.8493 18.2342 44.5514 16.95 44.1167 15.8291C43.6747 14.6505 42.9795 13.5832 42.0801 12.7025C41.1994 11.8031 40.1321 11.1079 38.9535 10.6659C37.8282 10.229 36.544 9.9311 34.6662 9.84504C32.7818 9.7612 32.1839 9.73913 27.3869 9.73913H27.3913ZM25.8092 12.9209H27.3935C32.1066 12.9209 32.6649 12.9364 34.525 13.0224C36.2461 13.0997 37.1816 13.3887 37.8039 13.6292C38.6269 13.9492 39.2161 14.3331 39.8339 14.9509C40.4517 15.5688 40.8334 16.1557 41.1534 16.9809C41.3961 17.601 41.6829 18.5365 41.7602 20.2576C41.8462 22.1177 41.8639 22.676 41.8639 27.3869C41.8639 32.0978 41.8462 32.6583 41.7602 34.5184C41.6829 36.2395 41.3939 37.1728 41.1534 37.7951C40.8684 38.5605 40.4169 39.2531 39.8317 39.8228C39.2138 40.4407 38.6269 40.8224 37.8017 41.1423C37.1838 41.3851 36.2483 41.6719 34.525 41.7513C32.6649 41.8352 32.1066 41.855 27.3935 41.855C22.6804 41.855 22.1199 41.8352 20.2598 41.7513C18.5387 41.6719 17.6054 41.3851 16.9831 41.1423C16.2171 40.8583 15.5237 40.4076 14.9531 39.8228C14.3668 39.2527 13.9146 38.5593 13.6292 37.7928C13.3887 37.1728 13.0997 36.2372 13.0224 34.5162C12.9386 32.6561 12.9209 32.0978 12.9209 27.3825C12.9209 22.6671 12.9386 22.1133 13.0224 20.2532C13.1019 18.5321 13.3887 17.5966 13.6314 16.9743C13.9514 16.1513 14.3353 15.5621 14.9531 14.9443C15.571 14.3265 16.1579 13.9448 16.9831 13.6248C17.6054 13.3821 18.5387 13.0952 20.2598 13.0158C21.8882 12.9408 22.5193 12.9187 25.8092 12.9165V12.9209ZM36.8154 15.8512C36.5372 15.8512 36.2617 15.906 36.0047 16.0124C35.7477 16.1189 35.5142 16.2749 35.3175 16.4716C35.1208 16.6683 34.9648 16.9018 34.8583 17.1588C34.7519 17.4158 34.6971 17.6913 34.6971 17.9695C34.6971 18.2476 34.7519 18.5231 34.8583 18.7801C34.9648 19.0371 35.1208 19.2706 35.3175 19.4673C35.5142 19.664 35.7477 19.82 36.0047 19.9265C36.2617 20.0329 36.5372 20.0877 36.8154 20.0877C37.3772 20.0877 37.9159 19.8645 38.3132 19.4673C38.7104 19.07 38.9336 18.5313 38.9336 17.9695C38.9336 17.4077 38.7104 16.8689 38.3132 16.4716C37.9159 16.0744 37.3772 15.8512 36.8154 15.8512ZM27.3935 18.3269C26.1911 18.3082 24.997 18.5288 23.8807 18.9759C22.7644 19.4231 21.7482 20.0879 20.8912 20.9315C20.0343 21.7752 19.3537 22.7809 18.8892 23.8901C18.4247 24.9993 18.1855 26.1899 18.1855 27.3924C18.1855 28.595 18.4247 29.7855 18.8892 30.8947C19.3537 32.0039 20.0343 33.0096 20.8912 33.8533C21.7482 34.6969 22.7644 35.3617 23.8807 35.8089C24.997 36.256 26.1911 36.4767 27.3935 36.4579C29.7733 36.4208 32.0431 35.4493 33.7129 33.7533C35.3828 32.0572 36.3187 29.7725 36.3187 27.3924C36.3187 25.0123 35.3828 22.7276 33.7129 21.0316C32.0431 19.3355 29.7733 18.364 27.3935 18.3269ZM27.3935 21.5065C28.1663 21.5065 28.9315 21.6587 29.6455 21.9545C30.3595 22.2502 31.0082 22.6837 31.5547 23.2301C32.1011 23.7766 32.5346 24.4253 32.8303 25.1393C33.1261 25.8533 33.2783 26.6185 33.2783 27.3913C33.2783 28.1641 33.1261 28.9293 32.8303 29.6433C32.5346 30.3573 32.1011 31.006 31.5547 31.5525C31.0082 32.0989 30.3595 32.5324 29.6455 32.8281C28.9315 33.1239 28.1663 33.2761 27.3935 33.2761C25.8328 33.2761 24.3359 32.6561 23.2323 31.5525C22.1287 30.4489 21.5087 28.952 21.5087 27.3913C21.5087 25.8306 22.1287 24.3337 23.2323 23.2301C24.3359 22.1265 25.8328 21.5065 27.3935 21.5065Z" fill="#010A4C"/>
</svg>
