<svg width="25" height="34" viewBox="0 0 25 34" fill="none" xmlns="http://www.w3.org/2000/svg">
<path d="M1.19647e-05 12.7503C-5.28466e-05 10.6449 0.511048 8.5722 1.48768 6.71737C2.46431 4.86255 3.87607 3.28327 5.5969 2.12057C7.31773 0.957863 9.29407 0.247919 11.3494 0.0541282C13.4048 -0.139663 15.4753 0.18873 17.3759 1.00999C19.2765 1.83124 20.9482 3.11979 22.2416 4.76059C23.535 6.40139 24.41 8.34335 24.7883 10.4131C25.1666 12.4828 25.0365 14.6159 24.4096 16.6219C23.7828 18.6278 22.6786 20.4442 21.1958 21.9089C20.7729 22.3254 20.4479 22.7589 20.2521 23.2243L18.6646 26.9833C18.584 27.1738 18.4506 27.3361 18.2806 27.4502C18.1107 27.5642 17.9117 27.625 17.7083 27.6251H7.29167C7.08791 27.6254 6.88851 27.5648 6.71817 27.4508C6.54783 27.3367 6.41403 27.1742 6.33334 26.9833L4.74793 23.2221C4.51926 22.7264 4.1988 22.2805 3.80418 21.9089C2.59884 20.7217 1.64069 19.2987 0.987041 17.725C0.333395 16.1513 -0.00231014 14.4593 1.19647e-05 12.7503ZM6.25001 30.8125C6.25001 30.5307 6.35976 30.2605 6.55511 30.0612C6.75046 29.862 7.01541 29.75 7.29167 29.75H17.7083C17.9846 29.75 18.2496 29.862 18.4449 30.0612C18.6403 30.2605 18.75 30.5307 18.75 30.8125C18.75 31.0943 18.6403 31.3646 18.4449 31.5638C18.2496 31.7631 17.9846 31.875 17.7083 31.875L17.2417 32.8249C17.0688 33.1778 16.803 33.4747 16.474 33.6822C16.1451 33.8897 15.766 33.9998 15.3792 34H9.62084C9.23405 33.9998 8.85494 33.8897 8.52599 33.6822C8.19705 33.4747 7.93124 33.1778 7.75834 32.8249L7.29167 31.875C7.01541 31.875 6.75046 31.7631 6.55511 31.5638C6.35976 31.3646 6.25001 31.0943 6.25001 30.8125Z" fill="#BB91FF"/>
</svg>
