<svg width="229" height="311" viewBox="0 0 229 311" fill="none" xmlns="http://www.w3.org/2000/svg">
<path d="M0.000109597 116.627C-0.000484074 97.3691 4.6812 78.4105 13.6271 61.4442C22.573 44.478 35.5048 30.0323 51.2676 19.397C67.0304 8.76163 85.1337 2.26773 103.961 0.495114C122.788 -1.27751 141.753 1.72633 159.163 9.23839C176.573 16.7505 191.885 28.5369 203.733 43.5454C215.581 58.5539 223.595 76.3171 227.06 95.2491C230.526 114.181 229.334 133.693 223.592 152.041C217.85 170.39 207.736 187.005 194.154 200.402C190.28 204.212 187.303 208.177 185.509 212.434L170.968 246.818C170.23 248.561 169.007 250.045 167.451 251.088C165.894 252.132 164.072 252.688 162.208 252.688H66.7917C64.9252 252.691 63.0988 252.137 61.5384 251.094C59.9781 250.05 58.7525 248.564 58.0134 246.818L43.491 212.414C41.3964 207.88 38.461 203.801 34.8463 200.402C23.8054 189.542 15.0287 176.526 9.0413 162.132C3.0539 147.737 -0.0211609 132.26 0.000109597 116.627ZM57.2501 281.844C57.2501 279.267 58.2554 276.795 60.0448 274.972C61.8342 273.149 64.2611 272.125 66.7917 272.125H162.208C164.739 272.125 167.166 273.149 168.955 274.972C170.745 276.795 171.75 279.267 171.75 281.844C171.75 284.422 170.745 286.894 168.955 288.716C167.166 290.539 164.739 291.563 162.208 291.563L157.934 300.251C156.35 303.479 153.915 306.195 150.902 308.093C147.889 309.992 144.416 310.998 140.873 311H88.1269C84.5838 310.998 81.1113 309.992 78.0981 308.093C75.0849 306.195 72.6501 303.479 71.0664 300.251L66.7917 291.563C64.2611 291.563 61.8342 290.539 60.0448 288.716C58.2554 286.894 57.2501 284.422 57.2501 281.844Z" fill="#FAFAFA" fill-opacity="0.04"/>
</svg>
