<svg width="43" height="81" viewBox="0 0 43 81" fill="none" xmlns="http://www.w3.org/2000/svg">
<path d="M26.0386 3.1932C25.4901 2.58761 25.576 1.67013 26.2303 1.14395C26.8846 0.617779 27.8597 0.682161 28.4082 1.28775L26.0386 3.1932ZM38.9098 46.3583L37.4495 45.9061L38.9098 46.3583ZM0.32588 79.0416L10.819 65.2995L18.0791 80.4995L0.32588 79.0416ZM28.4082 1.28775C35.8655 9.52178 47.878 26.3828 40.3702 46.8106L37.4495 45.9061C44.3847 27.0362 33.3607 11.278 26.0386 3.1932L28.4082 1.28775ZM40.3702 46.8106C35.0547 61.2735 23.5667 69.7031 13.7645 74.7829L12.3083 72.2447C21.7599 67.3466 32.4915 59.3963 37.4495 45.9061L40.3702 46.8106Z" fill="#627EEA"/>
</svg>
