<svg width="256" height="367" viewBox="0 0 256 367" fill="none" xmlns="http://www.w3.org/2000/svg">
<path d="M128 22.9375C141.579 22.9375 154.602 27.7707 164.204 36.374C173.806 44.9772 179.2 56.6457 179.2 68.8125V160.562H76.8V68.8125C76.8 56.6457 82.1943 44.9772 91.7961 36.374C101.398 27.7707 114.421 22.9375 128 22.9375ZM204.8 160.562V68.8125C204.8 50.5623 196.709 33.0596 182.306 20.1547C167.903 7.24987 148.369 0 128 0C107.631 0 88.097 7.24987 73.6942 20.1547C59.2914 33.0596 51.2 50.5623 51.2 68.8125V160.562C37.6209 160.562 24.598 165.396 14.9961 173.999C5.39427 182.602 0 194.271 0 206.438V321.125C0 333.292 5.39427 344.96 14.9961 353.564C24.598 362.167 37.6209 367 51.2 367H204.8C218.379 367 231.402 362.167 241.004 353.564C250.606 344.96 256 333.292 256 321.125V206.438C256 194.271 250.606 182.602 241.004 173.999C231.402 165.396 218.379 160.562 204.8 160.562Z" fill="white" fill-opacity="0.1"/>
</svg>
