<svg width="24" height="34" viewBox="0 0 24 34" fill="none" xmlns="http://www.w3.org/2000/svg">
<path d="M11.5357 2.125C12.7595 2.125 13.9332 2.57277 14.7985 3.3698C15.6639 4.16683 16.15 5.24783 16.15 6.375V14.875H6.92143V6.375C6.92143 5.24783 7.40758 4.16683 8.27292 3.3698C9.13827 2.57277 10.3119 2.125 11.5357 2.125ZM18.4571 14.875V6.375C18.4571 4.68425 17.7279 3.06274 16.4299 1.86719C15.1319 0.67165 13.3714 0 11.5357 0C9.70004 0 7.93955 0.67165 6.64153 1.86719C5.34351 3.06274 4.61429 4.68425 4.61429 6.375V14.875C3.3905 14.875 2.21684 15.3228 1.35149 16.1198C0.486146 16.9168 0 17.9978 0 19.125V29.75C0 30.8772 0.486146 31.9582 1.35149 32.7552C2.21684 33.5522 3.3905 34 4.61429 34H18.4571C19.6809 34 20.8546 33.5522 21.7199 32.7552C22.5853 31.9582 23.0714 30.8772 23.0714 29.75V19.125C23.0714 17.9978 22.5853 16.9168 21.7199 16.1198C20.8546 15.3228 19.6809 14.875 18.4571 14.875Z" fill="#BB91FF"/>
</svg>
