<svg width="268" height="32" viewBox="0 0 268 32" fill="none" xmlns="http://www.w3.org/2000/svg">
<path fill-rule="evenodd" clip-rule="evenodd" d="M51.9151 0.150016H49.3223V30.9499H69.7761V28.3963H51.9013L51.9151 0.150016Z" fill="white"/>
<path fill-rule="evenodd" clip-rule="evenodd" d="M95.1714 16.4517C95.1714 24.3825 91.8082 28.6863 84.8138 28.6863C77.8193 28.6863 74.4562 24.3825 74.4562 16.4384V0.150016H71.8324V16.4384C71.8324 25.8227 76.179 31.2799 84.8138 31.2799C93.4485 31.2799 97.8226 25.7727 97.8226 16.4517V0.150016H95.1714V16.4517Z" fill="white"/>
<path fill-rule="evenodd" clip-rule="evenodd" d="M126.97 0.150016H123.772L114.291 12.6513L104.81 0.150016H101.612L112.726 14.6415L100.168 30.9366H103.369L114.291 16.5951L125.212 30.9366H128.438L115.852 14.6415L126.97 0.150016Z" fill="white"/>
<path fill-rule="evenodd" clip-rule="evenodd" d="M152.458 0.150016L141.316 14.3648L130.144 0.150016H126.983L139.996 16.9451V30.9366H142.606V16.9451L155.615 0.150016H152.458Z" fill="white"/>
<path fill-rule="evenodd" clip-rule="evenodd" d="M212.365 0.813419L200.105 19.1187L200.219 0.813419H194.634L181.168 18.9453L183.128 0.326702H175.89L165.58 0.210022C159.019 0.210022 153.806 4.29045 152.784 9.96437C152.055 14.0048 154.119 16.325 157.557 17.6552L161.158 19.072C162.688 19.672 163.273 20.6188 163.039 21.9089C162.606 24.3159 160.494 25.6893 158.19 25.6893C155.219 25.6893 154.346 23.6691 155.023 21.1355H148.197C146.529 27.9262 150.229 31.49 156.921 31.49C163.613 31.49 169.71 26.9361 170.872 20.4888C171.546 16.7517 169.71 14.6449 166 13.098L162.578 11.6812C161.134 11.0812 160.161 10.3477 160.408 8.97427C160.756 7.04073 162.361 6.01063 164.181 6.01063L175.078 6.0473L173.606 30.8899H179.057L193.988 10.7811L193.193 30.8899H198.644L220.074 0.810085H212.361L212.365 0.813419Z" fill="white"/>
<path fill-rule="evenodd" clip-rule="evenodd" d="M226.99 0.813419L202.148 30.8932H210.435L213.685 26.6394H226.584L226.525 30.8932H234.328L232.664 0.813419H226.99ZM226.687 20.6655H218.221L226.873 9.32097L226.687 20.6655Z" fill="white"/>
<path fill-rule="evenodd" clip-rule="evenodd" d="M259.569 0.813419H246.14L238.296 24.6759L235.92 30.9166L241.804 30.9999L245.04 23.1157H251.91C259.4 23.1157 266.58 17.9585 267.828 11.0412C268.781 5.75727 265.731 0.813419 259.569 0.813419ZM260.225 11.4279C259.644 14.6515 256.456 16.8418 253.265 16.8418H247.457L251.257 7.08741H256.976C259.369 7.08741 260.645 9.10762 260.225 11.4279Z" fill="white"/>
<path fill-rule="evenodd" clip-rule="evenodd" d="M38.4076 0.0233357L22.6374 0L6.28951 0.0233357L0 5.64392L12.8507 5.79394L12.665 8.24419L22.6305 2.07355L32.5445 8.24086L26.0074 8.23753L23.2736 32L44.7006 8.24419L32.5479 8.24086L31.9083 5.58058L44.7006 5.64392L38.4076 0.0233357Z" fill="white"/>
<path fill-rule="evenodd" clip-rule="evenodd" d="M21.9944 32L19.2605 8.24419H12.665H0L21.9944 32Z" fill="white"/>
</svg>
