<svg width="56" height="56" viewBox="0 0 56 56" fill="none" xmlns="http://www.w3.org/2000/svg">
<path d="M56 28C56 35.4261 53.05 42.548 47.799 47.799C42.548 53.05 35.4261 56 28 56C20.5739 56 13.452 53.05 8.20101 47.799C2.94999 42.548 0 35.4261 0 28C0 20.5739 2.94999 13.452 8.20101 8.20101C13.452 2.94999 20.5739 0 28 0C35.4261 0 42.548 2.94999 47.799 8.20101C53.05 13.452 56 20.5739 56 28ZM29.0045 20.671C26.2792 21.805 20.8355 24.15 12.6735 27.706C11.3505 28.231 10.6563 28.7467 10.591 29.253C10.486 30.1035 11.5535 30.4395 13.006 30.898L13.6185 31.0905C15.0465 31.556 16.9715 32.0985 17.969 32.1195C18.879 32.1428 19.8917 31.7695 21.007 30.9995C28.6347 25.8522 32.571 23.2505 32.816 23.1945C32.991 23.1525 33.236 23.1035 33.397 23.2505C33.558 23.3975 33.544 23.6705 33.5265 23.744C33.4215 24.1955 29.232 28.0875 27.0655 30.1035C26.39 30.7335 25.9105 31.178 25.8125 31.2795C25.5968 31.5001 25.3774 31.7171 25.1545 31.9305C23.8245 33.2115 22.8305 34.1705 25.207 35.7385C26.3515 36.4945 27.2685 37.114 28.182 37.737C29.176 38.416 30.17 39.0915 31.458 39.9385C31.7847 40.1532 32.0997 40.3713 32.403 40.593C33.5615 41.419 34.608 42.161 35.8925 42.042C36.6415 41.972 37.415 41.272 37.807 39.172C38.7345 34.2125 40.558 23.471 40.978 19.0435C41.0044 18.6755 40.9891 18.3056 40.9325 17.941C40.8986 17.647 40.7563 17.3762 40.5335 17.1815C40.2146 16.9625 39.8353 16.8487 39.4485 16.856C38.3985 16.8735 36.778 17.437 29.0045 20.671Z" fill="white"/>
</svg>
