<svg width="72" height="56" viewBox="0 0 72 56" fill="none" xmlns="http://www.w3.org/2000/svg">
<path d="M3.38779 1.9627C3.41569 1.14613 2.75783 0.50087 1.91843 0.521471C1.07903 0.542072 0.375944 1.22073 0.348048 2.0373L3.38779 1.9627ZM21.4251 43.2368L20.6018 44.525L21.4251 43.2368ZM71.991 43.2873L55.1058 39.5669L59.3743 55.8619L71.991 43.2873ZM0.348048 2.0373C-0.0312334 13.1399 1.68026 33.7715 20.6018 44.525L22.2483 41.9487C4.76983 32.0153 3.01539 12.864 3.38779 1.9627L0.348048 2.0373ZM20.6018 44.525C33.9983 52.1385 48.2136 51.1596 58.9788 48.7108L58.4522 45.8323C48.072 48.1935 34.7438 49.0501 22.2483 41.9487L20.6018 44.525Z" fill="#627EEA"/>
</svg>
