<svg width="29" height="34" viewBox="0 0 29 34" fill="none" xmlns="http://www.w3.org/2000/svg">
<path fill-rule="evenodd" clip-rule="evenodd" d="M14.3158 0C12.9047 0 10.5466 0.563125 8.3277 1.19C6.05763 1.8275 3.76915 2.58188 2.42347 3.03875C1.86084 3.23181 1.36204 3.58586 0.984358 4.06024C0.606679 4.53462 0.365446 5.11007 0.288372 5.7205C-0.930515 15.2341 1.89787 22.2849 5.32957 26.9493C6.78537 28.9441 8.52046 30.7011 10.4771 32.1619C11.2665 32.742 11.9987 33.1861 12.6204 33.49C13.193 33.7705 13.8086 34 14.3158 34C14.823 34 15.4365 33.7705 16.0112 33.49C16.7615 33.113 17.4786 32.6686 18.1545 32.1619C20.1111 30.7011 21.8462 28.9441 23.302 26.9493C26.7337 22.2849 29.5621 15.2341 28.3432 5.7205C28.2665 5.10969 28.0254 4.53378 27.6477 4.059C27.27 3.58422 26.771 3.22984 26.2081 3.03663C24.2545 2.37152 22.2859 1.75509 20.3039 1.18788C18.0849 0.56525 15.7269 0 14.3158 0ZM14.3158 10.625C15.0402 10.6239 15.7417 10.8892 16.2959 11.374C16.8502 11.8588 17.2214 12.5317 17.3439 13.2736C17.4663 14.0155 17.3322 14.7786 16.9651 15.4275C16.598 16.0765 16.0218 16.5696 15.3383 16.8194L16.1257 21.0481C16.1544 21.2019 16.1499 21.3604 16.1127 21.5122C16.0755 21.664 16.0064 21.8054 15.9105 21.9263C15.8145 22.0471 15.694 22.1444 15.5576 22.2112C15.4212 22.2779 15.2723 22.3125 15.1216 22.3125H13.51C13.3594 22.3122 13.2107 22.2774 13.0746 22.2105C12.9385 22.1436 12.8182 22.0462 12.7225 21.9254C12.6268 21.8047 12.5579 21.6634 12.5208 21.5117C12.4837 21.3601 12.4793 21.2018 12.5079 21.0481L13.2932 16.8194C12.6098 16.5696 12.0336 16.0765 11.6665 15.4275C11.2994 14.7786 11.1652 14.0155 11.2877 13.2736C11.4102 12.5317 11.7814 11.8588 12.3356 11.374C12.8899 10.8892 13.5913 10.6239 14.3158 10.625Z" fill="#BB91FF"/>
</svg>
