<svg width="256" height="304" viewBox="0 0 256 304" fill="none" xmlns="http://www.w3.org/2000/svg">
<path fill-rule="evenodd" clip-rule="evenodd" d="M128 0C115.383 0 94.2995 5.035 74.4595 10.64C54.1623 16.34 33.7006 23.085 21.6687 27.17C16.6381 28.8962 12.1782 32.0618 8.80132 36.3033C5.42443 40.5448 3.26752 45.6901 2.57838 51.148C-8.3199 136.211 16.9692 199.253 47.6526 240.958C60.6692 258.794 76.1829 274.504 93.6777 287.565C100.736 292.752 107.282 296.723 112.841 299.44C117.961 301.948 123.465 304 128 304C132.535 304 138.021 301.948 143.159 299.44C149.867 296.069 156.279 292.095 162.322 287.565C179.817 274.504 195.331 258.794 208.347 240.958C239.031 199.253 264.32 136.211 253.422 51.148C252.736 45.6866 250.58 40.5373 247.203 36.2922C243.826 32.0471 239.364 28.8786 234.331 27.151C216.864 21.2042 199.262 15.6926 181.541 10.621C161.701 5.054 140.617 0 128 0ZM128 95C134.478 94.99 140.749 97.3623 145.705 101.697C150.66 106.031 153.98 112.048 155.075 118.682C156.17 125.315 154.97 132.138 151.688 137.94C148.406 143.743 143.253 148.152 137.143 150.385L144.183 188.195C144.439 189.57 144.399 190.987 144.067 192.345C143.734 193.702 143.116 194.966 142.258 196.047C141.4 197.127 140.323 197.997 139.104 198.594C137.884 199.191 136.553 199.5 135.205 199.5H120.795C119.449 199.497 118.12 199.186 116.902 198.588C115.685 197.989 114.61 197.119 113.754 196.039C112.898 194.959 112.282 193.696 111.951 192.34C111.619 190.984 111.58 189.569 111.835 188.195L118.857 150.385C112.747 148.152 107.594 143.743 104.312 137.94C101.03 132.138 99.8303 125.315 100.925 118.682C102.02 112.048 105.34 106.031 110.295 101.697C115.251 97.3623 121.522 94.99 128 95Z" fill="white" fill-opacity="0.1"/>
</svg>
