<svg xmlns="http://www.w3.org/2000/svg" width="256" height="256" style="shape-rendering:geometricPrecision;text-rendering:geometricPrecision;image-rendering:optimizeQuality;fill-rule:evenodd;clip-rule:evenodd"><path fill="#fdfcfc" d="M-.5-.5h256v256h-76v-1q.246-4.976 3-9 4.473-.594 8 2 4.19-5.469 9.5-1l3-1q1.517.588 1.5 2a9.4 9.4 0 0 0 3-3q6.087 4.447 13 1.5 3.16-1.896 3-5.5 3.353.442 6-1h1a25.7 25.7 0 0 0 6-6 61 61 0 0 0 11-.5q3.29-4.557 1-9.5v-1a41.4 41.4 0 0 1 2.5-6q1.207-4.794-.5-9l-2-3q1.453-1.214 2.5-3 1.212-5.29-.5-10a182 182 0 0 0-3-15 21.1 21.1 0 0 0-9-1q.401-2.398-1-4-.016-2.276-2-3.5a32.5 32.5 0 0 0-8-.5q-2.317.305-4 2a57.2 57.2 0 0 0-1 15v1q-1 0-1-1a51.3 51.3 0 0 0-1.5-16q-1.006-1.129-2.5-1-.5-1.5-2-2l-4-2q1.65-1.657 2-4h1q1.257-.513 1-2l3-6q1.859-33.909 12.5-66a12.5 12.5 0 0 0 0-7Q211.985 47.984 183.5 26a47.3 47.3 0 0 0-14-7.5 112 112 0 0 0-16-5q-.513-1.258-2-1a246.5 246.5 0 0 0-45-9 102.4 102.4 0 0 0-29 .5q-29 10.479-51 31.5a69 69 0 0 0-11 12v1a487 487 0 0 0-16 25z" style="opacity:1"/><path fill="#24252e" d="M106.5 3.5a246.5 246.5 0 0 1 45 9q-11.697.295-24 0v-5a39.6 39.6 0 0 1-11.5-1q-1.516.833-2.5 2-4.71-1.915-9.5 0l-6-2q-3.49.484-3.5 4a101.6 101.6 0 0 0-26 0q9.753-1.368 19-5.5a178 178 0 0 0 19-1.5" style="opacity:1"/><path fill="#313246" d="M94.5 10.5a16.6 16.6 0 0 1 7-.5q-11.413 4.204-21 11.5a19.2 19.2 0 0 1-1-6q-6.495-1.573-6.5 5-5.442 4.193-4.5 11h-9q.369-5.475 0-10.5 2.538-2.1 2-5.5 2.514-1.025 2-4a20.7 20.7 0 0 0 5-1 101.6 101.6 0 0 1 26 0" style="opacity:1"/><path fill="#161619" d="M106.5 3.5a178 178 0 0 1-19 1.5q-9.247 4.132-19 5.5a20.7 20.7 0 0 1-5 1q.514 2.975-2 4h-3v3q-12.442 6.442-19 19a41.6 41.6 0 0 1-8 1 8.43 8.43 0 0 0-.5-4 13.9 13.9 0 0 1-4 3 2.43 2.43 0 0 1-.5-2q22-21.021 51-31.5a102.4 102.4 0 0 1 29-.5" style="opacity:1"/><path fill="#2f2d37" d="M153.5 13.5a112 112 0 0 1 16 5 2.43 2.43 0 0 0-2 .5l5 3-1 1q3.147-1.477 6 1a336 336 0 0 1 27 23.5q-2.682.428-5-1-1.024-7.029-8-6v7a173 173 0 0 1-16-7.5q-11.415-.268 0 3.5v4h-16v-16h4q-.426-4.915 1-9.5-3.737-.94 0-2.5-6.435-3.144-11-6" style="opacity:1"/><path fill="#2c2b37" d="M61.5 15.5q.538 3.4-2 5.5.369 5.025 0 10.5-2.55-.24-5 .5a8.9 8.9 0 0 1-4 3l1 1a37.8 37.8 0 0 0-12 2.5q-2.5.5-3 3a98 98 0 0 1-13 2q.362 5.248-2.5 1-1.559 1.116-1.5 3h-4a69 69 0 0 1 11-12 2.43 2.43 0 0 0 .5 2 13.9 13.9 0 0 0 4-3 8.43 8.43 0 0 1 .5 4 41.6 41.6 0 0 0 8-1q6.558-12.558 19-19v-3z" style="opacity:1"/><path fill="#37324c" d="M151.5 12.5q1.487-.258 2 1 4.565 2.856 11 6-3.737 1.56 0 2.5-1.426 4.585-1 9.5h-4v16h16v-4q19.38 7.686 36 20a77.8 77.8 0 0 0-17 1q-9.174-2.406-19-3.5a513 513 0 0 0-32-.5v-5q-28.67 1.61-64 0v-8q9.97 1.49 20 3l12-1.5q2.21-1.064 2-3.5 4.707-.94 8.5-4 .747-4.975.5-10h-27a18.4 18.4 0 0 0-.5-6 32 32 0 0 0-7.5-3q3.716-2.07 0-3a126.4 126.4 0 0 1 19-9.5q3.102-1.03 6 .5 1.197-.686 1-2 .984-1.167 2.5-2a39.6 39.6 0 0 0 11.5 1v5q12.303.295 24 0" style="opacity:1"/><path fill="#3a385d" d="M87.5 19.5q3.716.93 0 3a32 32 0 0 1 7.5 3q.743 2.96.5 6h27a50.5 50.5 0 0 1-.5 10q-3.793 3.06-8.5 4 .21 2.436-2 3.5l-12 1.5a17720 17720 0 0 0-20-3v8h-13v-3q3.898-15.043 13-27.5a49.5 49.5 0 0 0 8-5.5" style="opacity:1"/><path fill="#403e6e" d="M30.5 60.5q5.385-9.102-2-1a56 56 0 0 1-4.5-1q-5.562 3.73-11.5 0a44 44 0 0 0 3-2v-9h4q14.68-.044 27-8a43.1 43.1 0 0 1 1 13h8v11q2.217-.393 4 1a37.9 37.9 0 0 1-4.5 10 41 41 0 0 0-6.5-4q-1.329-1.238-1-3-4.5-.5-4 4-5.407-3.47-12-4 .453-3.84-1-7" style="opacity:1"/><path fill="#111430" d="M113.5 8.5q.197 1.314-1 2-2.898-1.53-6-.5a126.4 126.4 0 0 0-19 9.5 49.5 49.5 0 0 1-8 5.5q-9.102 12.458-13 27.5-3.127 4.952-4 11-1.63-.18-2-2a239.6 239.6 0 0 1 14.5-34q2.04-3.785 5.5-6 9.587-7.296 21-11.5a16.6 16.6 0 0 0-7 .5q.01-3.516 3.5-4l6 2q4.79-1.915 9.5 0" style="opacity:1"/><path fill="#100928" d="M143.5 60.5q16.008-.25 32 .5 9.826 1.094 19 3.5h-11q-3.672-1.46-8-1-15.73-1.492-32-1z" style="opacity:1"/><path fill="#151019" d="M143.5 60.5v2q-2.398-.401-4 1h-6a41.7 41.7 0 0 0-9 1q-8.43.291-16 3a8.44 8.44 0 0 0-4 .5 73.6 73.6 0 0 1-10 5.5q-1 0-1-1a62.8 62.8 0 0 1 13-7.5 400 400 0 0 1 37-4.5" style="opacity:1"/><path fill="#6f6389" d="M143.5 62.5q16.27-.492 32 1a234 234 0 0 0-30 1q-1.5-.5-2-2" style="opacity:1"/><path fill="#353758" d="M15.5 56.5a44 44 0 0 1-3 2q5.938 3.73 11.5 0 2.346.618 4.5 1-1.225 4.74-5 8-6.735-4.602-11 2.5a4.93 4.93 0 0 1-3 .5v-3q8-1 0-2v-4q.605-6.153 6-5" style="opacity:1"/><path fill="#34354d" d="M66.5 52.5v3h13v26a58.5 58.5 0 0 1-10 8q-1.2-2.313-1-5 3.71-.355 5-4-1.783-1.393-4-1 1.891-8.013 0-16h-7q.873-6.048 4-11" style="opacity:1"/><path fill="#33303f" d="M143.5 60.5a400 400 0 0 0-37 4.5 62.8 62.8 0 0 0-13 7.5 27.6 27.6 0 0 1-5 1.5q1.437 1.72-1 3a57 57 0 0 1-8 4.5v-26q35.33 1.61 64 0z" style="opacity:1"/><path fill="#121117" d="M15.5 48.5v8q-5.395-1.153-6 5-1.226 3.703-1.5 8l-1-3a32.8 32.8 0 0 0-5.5 12q-.686 1.195-2 1v-6a487 487 0 0 1 16-25" style="opacity:1"/><path fill="#946dd3" d="M124.5 64.5q6.179 1.857 13 2.5a71.3 71.3 0 0 1 17 8.5l-1.5 1a359 359 0 0 0-17.5-6 51 51 0 0 1-4-2.5q-11.489-.75-23-.5 7.57-2.709 16-3" style="opacity:1"/><path fill="#f3d9fa" d="M139.5 63.5q1.602-1.401 4-1 .5 1.5 2 2 1.092 3.352 4 5.5a28.4 28.4 0 0 1 7.5 4.5q.76 2.244-1.5 3.5-3 1-6 0a315 315 0 0 0-20-7q-8.624-1.177-17 .5a466 466 0 0 0-23 14.5q-6.192 2.09-12 .5 0-1 1-1a41 41 0 0 0 9-.5 116.7 116.7 0 0 0 21-14q13.386-4.608 27-.5a359 359 0 0 1 17.5 6l1.5-1a71.3 71.3 0 0 0-17-8.5q-6.821-.643-13-2.5a41.7 41.7 0 0 1 9-1 50.6 50.6 0 0 1 8 3q3.567-3.045-2-3" style="opacity:1"/><path fill="#876bb9" d="M133.5 63.5h6q5.567-.045 2 3a50.6 50.6 0 0 0-8-3" style="opacity:1"/><path fill="#1e203d" d="M30.5 60.5q-2.508 5.004-5 10-.686 1.195-2 1h-2q-2.069-3.82-5 0-4.735-1.31-7 3.5A15.3 15.3 0 0 0 5 76.5q-1.125 1.703.5 3a3.65 3.65 0 0 0 1.5-1q3.247 4.42 2.5 10 .098.658-.5 1-2.87-6.13-9.5-7v-3q1.314.195 2-1a32.8 32.8 0 0 1 5.5-12l1 3q.274-4.297 1.5-8v4q8 1 0 2v3a4.93 4.93 0 0 0 3-.5q4.265-7.102 11-2.5 3.775-3.26 5-8 7.385-8.102 2 1" style="opacity:1"/><path fill="#9571bc" d="M108.5 67.5q11.511-.25 23 .5a51 51 0 0 0 4 2.5q-13.614-4.108-27 .5a116.7 116.7 0 0 1-21 14 41 41 0 0 1-9 .5q7.985-5.995 16-12a73.6 73.6 0 0 0 10-5.5 8.44 8.44 0 0 1 4-.5" style="opacity:1"/><path fill="#f4dcf6" d="M183.5 65.5q7.055-.095 14 1 .513 1.257 2 1-9.218.262-19 .5a227 227 0 0 0-16 3.5q-1.877-1.458 1-2a175 175 0 0 1 18-4" style="opacity:1"/><path fill="#221734" d="M215.5 74.5a916 916 0 0 0-16-7q-1.487.257-2-1 4.026-1.848 8.5 0 5.248 3.246 10.5 6.5-.834.575-1 1.5" style="opacity:1"/><path fill="#8960c1" d="M175.5 63.5q4.328-.46 8 1v1a175 175 0 0 0-18 4q-2.877.542-1 2 2.1.9 3 3a16.3 16.3 0 0 0-5 2q-2.226 4.101 3 4.5-3.253 3.305-8 2.5-20.217-9.927-43-10-1.5-.5-2-2 8.376-1.677 17-.5a315 315 0 0 1 20 7q3 1 6 0 2.26-1.256 1.5-3.5a28.4 28.4 0 0 0-7.5-4.5q-2.908-2.148-4-5.5a234 234 0 0 1 30-1" style="opacity:1"/><path fill="#9f7ac7" d="M199.5 67.5a916 916 0 0 1 16 7q1.5.5 2 2-.57.95-1 2-23.455-15.195-49-4-.9-2.1-3-3a227 227 0 0 1 16-3.5q9.782-.238 19-.5" style="opacity:1"/><path fill="#3a3559" d="M80.5 21.5q-3.46 2.215-5.5 6a239.6 239.6 0 0 0-14.5 34q.37 1.82 2 2h7q1.891 7.987 0 16 2.217-.393 4 1-1.29 3.645-5 4-.2 2.687 1 5l-6 6v3a143 143 0 0 0-15 13q.305-2.317 2-4a11.4 11.4 0 0 0-2.5-2q-.75-8.985-.5-18a41 41 0 0 1-9-.5q1.102-6.113 5-11-1.722-2.59-3.5.5a84 84 0 0 1-7 13 20.1 20.1 0 0 0-1.5 6h-11a27.2 27.2 0 0 0-2-5.5 117 117 0 0 1 5-18.5q1.314.195 2-1 2.492-4.996 5-10 1.453 3.16 1 7 6.592.53 12 4-.5-4.5 4-4-.329 1.762 1 3a41 41 0 0 1 6.5 4 37.9 37.9 0 0 0 4.5-10q-1.783-1.393-4-1v-11h-8a43.1 43.1 0 0 0-1-13q-12.32 7.956-27 8-.059-1.884 1.5-3 2.862 4.248 2.5-1a98 98 0 0 0 13-2q.5-2.5 3-3a37.8 37.8 0 0 1 12-2.5l-1-1a8.9 8.9 0 0 0 4-3q2.45-.74 5-.5h9q-.942-6.807 4.5-11 .005-6.573 6.5-5 .025 3.098 1 6" style="opacity:1"/><path fill="#2c2d2c" d="M211.5 63.5q10.326 5.497 17 15.5.871 2.358 0 5.5-2.475-5.032-7.5-7a2.43 2.43 0 0 0-.5 2 10.2 10.2 0 0 0-3-3q-.5-1.5-2-2 .166-.925 1-1.5-5.252-3.254-10.5-6.5-4.474-1.848-8.5 0a82.7 82.7 0 0 0-14-1v-1h11a77.8 77.8 0 0 1 17-1" style="opacity:1"/><path fill="#303155" d="M21.5 71.5a103 103 0 0 1-7.5 20 31 31 0 0 1-4.5-3q.746-5.58-2.5-10-.621.685-1.5 1-1.625-1.297-.5-3A15.3 15.3 0 0 1 9.5 75q2.265-4.81 7-3.5 2.931-3.82 5 0" style="opacity:1"/><path fill="#0b0a0e" d="M169.5 18.5a47.3 47.3 0 0 1 14 7.5q28.485 21.984 47.5 52.5a12.5 12.5 0 0 1 0 7q-10.641 32.091-12.5 66a60 60 0 0 0-4-5.5 4.93 4.93 0 0 0-3-.5q-.591-8.695-5.5-16a135 135 0 0 1-8.5-11q16.983-8.486 26-25a61 61 0 0 0-.5-11 10.5 10.5 0 0 1-2.5-3 2.43 2.43 0 0 1 .5-2q5.025 1.968 7.5 7 .871-3.142 0-5.5-6.674-10.003-17-15.5-16.62-12.314-36-20-11.415-3.768 0-3.5a173 173 0 0 0 16 7.5 125 125 0 0 0 20.5 12l1.5-.5-3-3 2-1a85.5 85.5 0 0 1-8-7.5 336 336 0 0 0-27-23.5q-2.853-2.477-6-1l1-1-5-3a2.43 2.43 0 0 1 2-.5" style="opacity:1"/><path fill="#2e2e4a" d="M204.5 47.5a85.5 85.5 0 0 0 8 7.5l-2 1 3 3-1.5.5a125 125 0 0 1-20.5-12v-7q6.976-1.029 8 6 2.318 1.428 5 1" style="opacity:1"/><path fill="#9070bc" d="M112.5 71.5q.5 1.5 2 2-13.1 6.055-24 16a49.9 49.9 0 0 1-14 1v-3q0-1 1-1 5.808 1.59 12-.5a466 466 0 0 1 23-14.5" style="opacity:1"/><path fill="#160d2b" d="M93.5 72.5q0 1 1 1-8.015 6.005-16 12-1 0-1 1-1 0-1 1-1.487-.257-2 1l-8 7h-3l6-6a58.5 58.5 0 0 0 10-8 57 57 0 0 0 8-4.5q2.437-1.28 1-3a27.6 27.6 0 0 0 5-1.5" style="opacity:1"/><path fill="#7c63a8" d="M74.5 88.5a5.73 5.73 0 0 0 1 3 808 808 0 0 0-5 4h-4z" style="opacity:1"/><path fill="#f2e2f5" d="M217.5 76.5a10.2 10.2 0 0 1 3 3 10.5 10.5 0 0 0 2.5 3 61 61 0 0 1 .5 11h-12q-18.267-.492-36 1h-17v5q-1.426-2.128-1-5h-14a839 839 0 0 0-64-2q-2.188.1-4-1a5.73 5.73 0 0 1-1-3q.513-1.257 2-1v3q7.07.49 14-1 10.9-9.945 24-16 22.783.073 43 10 .534 2.055 2.5 3 7.734-4.726 15.5-9.5a33.6 33.6 0 0 1 12.5-3.5q13.052 1.353 24.5 7.5-.343.598-1 .5a503 503 0 0 1-17-5.5 30.5 30.5 0 0 0-11 0 160.3 160.3 0 0 0-23 12.5q-1.401 1.602-1 4 8.166.912 15-2h9q1.812 1.1 4 1h17q8.5 2 17 0 .428-2.682-1-5-3.838-1.661-7-4 1.663-1.185 4-1.5-26.361-16.906-54-2.5-1.197-.686-1-2a16.3 16.3 0 0 1 5-2q25.545-11.195 49 4 .43-1.05 1-2" style="opacity:1"/><path fill="#ada3b0" d="M204.5 85.5q1.442 2.648 1 6h16q-8.5 2-17 0z" style="opacity:1"/><path fill="#423647" d="M174.5 85.5v5q-6.834 2.912-15 2-.401-2.398 1-4v3h13q-.442-3.352 1-6" style="opacity:1"/><path fill="#0e0d0f" d="M211.5 81.5q.513 1.257 2 1 3.162 2.339 7 4 1.428 2.318 1 5h-16q.442-3.352-1-6-4.834-9.22-15.5-8-10.07-.845-14.5 8-1.442 2.648-1 6h-13v-3a160.3 160.3 0 0 1 23-12.5 30.5 30.5 0 0 1 11 0 503 503 0 0 0 17 5.5" style="opacity:1"/><path fill="#1e1d19" d="M187.5 91.5q-2.188.1-4-1-.045-1.496 1.5-2 2.623.372 2.5 3" style="opacity:1"/><path fill="#f2f4f0" d="M204.5 85.5v6h-17q.123-2.628-2.5-3-1.545.504-1.5 2h-9v-5q4.43-8.845 14.5-8 10.666-1.22 15.5 8" style="opacity:1"/><path fill="#161917" d="M191.5 85.5h4q.5 4.5-4 4z" style="opacity:1"/><path fill="#0d0c0d" d="M135.5 91.5q-1.657-17.373-19-13.5-6.875 2.62-9 9.5-1.356 1.064-1 3a43.1 43.1 0 0 1-13-1 88.7 88.7 0 0 1 18-12.5q10.956-2.775 22 0a409 409 0 0 1 19 6q6.563 2.55 5 9.5-11.278.488-22-1" style="opacity:1"/><path fill="#141113" d="M184.5 80.5q3.65 1.281-.5 3-.705-1.615.5-3" style="opacity:1"/><path fill="#eff0ee" d="M135.5 91.5h-17q-1.5-4-3 0l-8-1v-3q2.125-6.88 9-9.5 17.343-3.873 19 13.5" style="opacity:1"/><path fill="#1e1b17" d="M118.5 91.5h-3q1.5-4 3 0" style="opacity:1"/><path fill="#181b1f" d="M123.5 85.5q2.893-.405 5 1.5-2.78 2.503-6 .5.544-1.025 1-2" style="opacity:1"/><path fill="#1f1e1e" d="M115.5 81.5q2.217-.393 4 1-1.23 2.417-4 2z" style="opacity:1"/><path fill="#9874c6" d="M213.5 82.5q-1.487.257-2-1 .657.098 1-.5-11.448-6.147-24.5-7.5a33.6 33.6 0 0 0-12.5 3.5 6936 6936 0 0 1-15.5 9.5q-1.966-.945-2.5-3 4.747.805 8-2.5-5.226-.399-3-4.5-.197 1.314 1 2 27.639-14.406 54 2.5-2.337.315-4 1.5" style="opacity:1"/><path fill="#ab82e0" d="M79.5 92.5q32.053-.22 64 2v1a408 408 0 0 0-51 0 117 117 0 0 0-13-3" style="opacity:1"/><path fill="#ac78f2" d="M75.5 91.5q1.812 1.1 4 1 6.385 1.083 13 3a408 408 0 0 1 51 0h10q1.886 11.856-10 12.5a254 254 0 0 1-39-.5 7.25 7.25 0 0 0-2-2.5 25 25 0 0 0-7-.5q-2.007-2.42-5-1.5 8.758 8.486 21 9.5a72.4 72.4 0 0 0 .5 12q2.432 3.07 6.5 3a148 148 0 0 0 21-9.5q2.728-1.11 4-3.5v-3a38.5 38.5 0 0 0 12-3h4v-13h48q2.82.406 4-2h9a4.93 4.93 0 0 1-.5 3 118.3 118.3 0 0 1-16.5 16.5q-2.101.615-4 1.5a308 308 0 0 1-30 4q-.016-2.276-2-3.5a32.5 32.5 0 0 0-8-.5v6h7q-.255 1.983 1 3.5 4.276 1.934 9 1.5 1.487.257 2-1 6.753-.099 13.5-3 3.006 3.885 7.5 6 .466 6.952 7 8 1.401 1.602 1 4 .393 2.217-1 4a32.3 32.3 0 0 0-8 8.5q-6.629-2.898-14.5-2.5-4.878.029-8.5 2l-32-2h-16v-4a71.7 71.7 0 0 1-16-2h-6v-1q-.913-3.665-4.5-5a4.93 4.93 0 0 1-.5-3 18.5 18.5 0 0 1 6 .5q1.32 2.034 1 4.5h4v-12q-2.682-.428-5 1-.753 1.824-1 3.5-13.803 1.19-27.5-.5-3.11.858-3.5 4-2.274 2.549-3 6 .825 4.832 3 9a8.44 8.44 0 0 0 .5 4 127 127 0 0 0 18.5 14q1.783 1.393 4 1 2.496 1.865 3.5 5 2.093-1.972 3 1a3.94 3.94 0 0 1 2-1 79.2 79.2 0 0 0 21.5 6q15.513 4.433 32 5 10.044.274 19-1v2a29 29 0 0 0-3 4.5q-4.383.625-8 3a217.4 217.4 0 0 1-32 4.5q-7.95-.846-16-3a109 109 0 0 0-14-11 578 578 0 0 1-27-17q-1.329-1.237-1-3-2.976.175-5-2-2.99-5.484-8-9a14.7 14.7 0 0 1-1.5-5q-1.005-1.129-2.5-1-6.026-17.921-4.5-37a111.6 111.6 0 0 1 13-12l1.5-3a808 808 0 0 1 5-4" style="opacity:1"/><path fill="#9d74cf" d="M175.5 94.5q16.27-.492 32 1h-48v13h-4q2.78-4.062 3-9v-5z" style="opacity:1"/><path fill="#c6a4ee" d="M175.5 94.5q17.733-1.492 36-1-1.18 2.406-4 2-15.73-1.492-32-1" style="opacity:1"/><path fill="#a67ada" d="M153.5 95.5h3q1.705 14.547-13 14.5a256 256 0 0 1-32 0q-9.252.335-16-5.5 3.535-.245 7 .5a7.25 7.25 0 0 1 2 2.5 254 254 0 0 0 39 .5q11.886-.644 10-12.5" style="opacity:1"/><path fill="#f4d8fa" d="M143.5 95.5v-1h14q-.426 2.872 1 5-.22 4.938-3 9a38.5 38.5 0 0 1-12 3v3a179 179 0 0 0-25.5 12q-3-1 0-2a133 133 0 0 0 21.5-11.5q-13.991-.75-28-.5-12.242-1.014-21-9.5 2.993-.92 5 1.5 6.748 5.835 16 5.5 16 1 32 0 14.705.047 13-14.5h-13" style="opacity:1"/><path fill="#322f43" d="M48.5 111.5q-1.258.513-1 2-3.064 1.619-4 5-1.807-1.758 0-4a7.3 7.3 0 0 0-2-3q-5.14 15.402-7 0h-3v16h-9q.53 16.292 1 32-.834 3.864-.5 8-1.24-2.858-3.5-1l1 2a21 21 0 0 0-2 7h-3a29.3 29.3 0 0 1 2-6.5 11.3 11.3 0 0 0-1-3.5q8.226-8.924 3-20a7.3 7.3 0 0 1 2-3q-2.296-1.67-3-4.5a27.5 27.5 0 0 0 .5-11.5q-1.006 1.128-2.5 1a115.3 115.3 0 0 1 11.5-22 61 61 0 0 0 3.5-10 20.1 20.1 0 0 1 1.5-6 84 84 0 0 0 7-13q1.778-3.09 3.5-.5-3.898 4.887-5 11 4.473.747 9 .5-.25 9.015.5 18a11.4 11.4 0 0 1 2.5 2q-1.695 1.683-2 4" style="opacity:1"/><path fill="#e9d4f0" d="M220.5 93.5h3q-9.017 16.514-26 25a135 135 0 0 0 8.5 11q4.909 7.305 5.5 16a4.93 4.93 0 0 1 3 .5 60 60 0 0 1 4 5.5l-3 6a32.5 32.5 0 0 0-.5-8q-1.675-2.436-4.5-3a58.2 58.2 0 0 0-10 8q0-1-1-1a40.7 40.7 0 0 1 9.5-9q.899-3.052-1.5-5 .401-2.398-1-4-3.968-8.737-11-15.5a63.7 63.7 0 0 0-18 3q.834.575 1 1.5-.513 1.257-2 1-6.417-4.718-14-8-2-1 0-2a32 32 0 0 0 7 3q2.156 1.837 5 3a158 158 0 0 0 21-4.5q2.35-.912 4-2.5a28 28 0 0 1 4-1.5A118.3 118.3 0 0 0 220 96.5a4.93 4.93 0 0 0 .5-3" style="opacity:1"/><path fill="#8958ca" d="M63.5 95.5h7l-1.5 3a111.6 111.6 0 0 0-13 12q-1.526 19.079 4.5 37l-1.5 6q-1.076 1.426-2.5.5-7.115-7.971-8-18.5h4q-.25-12.01.5-24l10-10q.725-1.422.5-3z" style="opacity:1"/><path fill="#2f304b" d="m-.5 104.5 6 1.5q1.255 1.517 1 3.5h3q-.335 5.493-3 10 .634-4.182-3-6a88.7 88.7 0 0 0-.5 23q1.005-1.129 2.5-1a34.1 34.1 0 0 1-1 10q1.806 2.961 2.5 6a13.3 13.3 0 0 0-4.5 3q-3.285-5.22-1-11-.37-1.82-2-2z" style="opacity:1"/><path fill="#ae80db" d="M199.5 114.5q-1.65 1.588-4 2.5a158 158 0 0 1-21 4.5q-2.844-1.163-5-3a308 308 0 0 0 30-4" style="opacity:1"/><path fill="#ac7ddf" d="M169.5 118.5a32 32 0 0 1-7-3q-2 1 0 2 7.583 3.282 14 8-4.724.434-9-1.5-1.255-1.517-1-3.5h-7v-6a32.5 32.5 0 0 1 8 .5q1.984 1.224 2 3.5" style="opacity:1"/><path fill="#9a71d3" d="M111.5 112.5q14.009-.25 28 .5a133 133 0 0 1-21.5 11.5q-3 1 0 2a179 179 0 0 1 25.5-12q-1.272 2.39-4 3.5a148 148 0 0 1-21 9.5q-4.068.07-6.5-3a72.4 72.4 0 0 1-.5-12" style="opacity:1"/><path fill="#9a71cd" d="M206.5 135.5q-6.534-1.048-7-8-4.494-2.115-7.5-6-6.747 2.901-13.5 3-.166-.925-1-1.5a63.7 63.7 0 0 1 18-3q7.032 6.763 11 15.5" style="opacity:1"/><path fill="#ae7ee8" d="M105.5 142.5a183 183 0 0 0-16-8.5 25.2 25.2 0 0 0-10 0q-1.373.417-2 1.5h-3q.39-3.142 3.5-4a131.7 131.7 0 0 0 27.5.5q.247-1.676 1-3.5 2.318-1.428 5-1v12h-4q.32-2.466-1-4.5a18.5 18.5 0 0 0-6-.5 4.93 4.93 0 0 0 .5 3q3.587 1.335 4.5 5" style="opacity:1"/><path fill="#131721" d="M6.5 119.5q.482 8.29-1 16-1.495-.129-2.5 1a88.7 88.7 0 0 1 .5-23q3.634 1.818 3 6" style="opacity:1"/><path fill="#dbf4ff" d="M105.5 142.5v1q-7.57-2.536-14-7.5a98.4 98.4 0 0 0-14-.5q.627-1.083 2-1.5a25.2 25.2 0 0 1 10 0 183 183 0 0 1 16 8.5" style="opacity:1"/><path fill="#1a0c2c" d="M47.5 113.5q-2.985 5.261-3 11.5a95.6 95.6 0 0 0 3 18.5h-3q-3.06-12.454-1-25 .936-3.381 4-5" style="opacity:1"/><path fill="#3b3963" d="M13.5 111.5q-2.735 6.87-1 14 2.274-1.956 2 1.5-1.9 3.558.5 6.5.747 4.975.5 10-1.884-.606-3.5-2l-1.5 1q3.325 6.786 1 14 .21 2.295 2 3-1.063 1.356-3 1a13 13 0 0 0 1 5.5 112 112 0 0 0-4 9.5q-.936-.626-1-2a295 295 0 0 0 3-24 202 202 0 0 1-.5-32q1.329-3.89 4.5-6" style="opacity:1"/><path fill="#312f38" d="M43.5 118.5q-2.06 12.546 1 25h3v2q1.51 7.517 7 13-.141 6.025-4.5 10a3.65 3.65 0 0 0-1.5-1 16.9 16.9 0 0 0-1 8h-8q-.305 3.278-2 6a83 83 0 0 1-5-4q-3.073-9.987-9-18-.47-15.708-1-32h9v-16h3q1.86 15.402 7 0a7.3 7.3 0 0 1 2 3q-1.807 2.242 0 4" style="opacity:1"/><path fill="#474380" d="M15.5 143.5q.92 8.656-2 16-1.79-.705-2-3 2.325-7.214-1-14l1.5-1q1.616 1.394 3.5 2" style="opacity:1"/><path fill="#b380e1" d="M111.5 143.5a71.7 71.7 0 0 0 16 2v4h16q-2.178 1.203-5 1.5l1 1a543 543 0 0 0 52 2.5q-34.168 3.537-68-4.5a48.4 48.4 0 0 1-11-4.5q-1.197-.686-1-2" style="opacity:1"/><path fill="#a680df" d="M207.5 139.5q2.399 1.948 1.5 5a40.7 40.7 0 0 0-9.5 9q-3.672 1.46-8 1v-3h-16q3.622-1.971 8.5-2 7.871-.398 14.5 2.5a32.3 32.3 0 0 1 8-8.5q1.393-1.783 1-4" style="opacity:1"/><path fill="#dcf2fe" d="M105.5 143.5h6q-.197 1.314 1 2a48.4 48.4 0 0 0 11 4.5q33.832 8.037 68 4.5 4.328.46 8-1 1 0 1 1a91.6 91.6 0 0 1-14 12v-2a10.2 10.2 0 0 0 3-3q2.957-1.984 6-4-31.509 1.027-63-3.5a375 375 0 0 1-25-8q-1.321-1.062-2-2.5" style="opacity:1"/><path fill="#b271f9" d="m143.5 149.5 32 2h16v3a543 543 0 0 1-52-2.5l-1-1q2.822-.297 5-1.5" style="opacity:1"/><path fill="#bff8fe" d="M88.5 146.5q23.397 14.643 51 18.5a224.6 224.6 0 0 0 44 2 10.5 10.5 0 0 1 3-2.5v2l-3 2h-2q-47.603 3.654-90-17.5a19.9 19.9 0 0 0-4-3.5q.186-.91 1-1" style="opacity:1"/><path fill="#d4e9fe" d="M74.5 135.5h3l-2 2q-2.835 3.504-1.5 8 6.04 10.407 16.5 16.5 6.984 2.56 13 6.5-6.47-.072-12-3.5a119.6 119.6 0 0 1-17-14.5q-2.175-4.168-3-9 .726-3.451 3-6" style="opacity:1"/><path fill="#796c96" d="M59.5 159.5h4v3q-2.856-.357-4-3" style="opacity:1"/><path fill="#8d66be" d="M74.5 150.5a119.6 119.6 0 0 0 17 14.5q5.53 3.428 12 3.5l2 2-8-1q-2.217.393-4-1a127 127 0 0 1-18.5-14 8.44 8.44 0 0 1-.5-4" style="opacity:1"/><path fill="#3cc1f5" d="M77.5 135.5a98.4 98.4 0 0 1 14 .5q6.43 4.964 14 7.5.679 1.438 2 2.5a375 375 0 0 0 25 8q31.491 4.527 63 3.5a1179 1179 0 0 0-6 4q-2.976-.175-5 2a182 182 0 0 1-33 .5 1109 1109 0 0 1-31-5 59.5 59.5 0 0 0-19-6.5v-3q-2.988.258-5-2a3.65 3.65 0 0 0-1.5 1 41 41 0 0 0-6.5-4q-1.445.705 0 2-.814.09-1 1a19.9 19.9 0 0 1 4 3.5q42.397 21.154 90 17.5-.332 3.851-2 7a145 145 0 0 1-12 1 1188 1188 0 0 1-48-5.5q-21.841-5.346-39-19.5-6.459-6.024-3-13.5a2.43 2.43 0 0 0-2-.5z" style="opacity:1"/><path fill="#1a203b" d="M13.5 111.5q1.496-.045 2 1.5l-2 3a749 749 0 0 1 3 11.5q1.494.128 2.5-1a27.5 27.5 0 0 1-.5 11.5q.704 2.83 3 4.5a7.3 7.3 0 0 0-2 3q5.226 11.076-3 20a11.3 11.3 0 0 1 1 3.5 29.3 29.3 0 0 0-2 6.5h-8a112 112 0 0 1 4-9.5 13 13 0 0 1-1-5.5q1.937.356 3-1 2.92-7.344 2-16a50.4 50.4 0 0 0-.5-10q-2.4-2.942-.5-6.5.274-3.456-2-1.5-1.735-7.13 1-14" style="opacity:1"/><path fill="#a87ade" d="M215.5 157.5q.257 1.487-1 2 .901-10.877-9-7.5-7.021 5.361-6.5 13.5a3.65 3.65 0 0 0-1.5-1 19 19 0 0 1-5 3l-2-2q-1.257 5.433-6 10a53.8 53.8 0 0 0-2 16h-4l1-4 4-19 3-2a91.6 91.6 0 0 0 14-12 58.2 58.2 0 0 1 10-8q2.825.564 4.5 3 .746 3.97.5 8" style="opacity:1"/><path fill="#46a1cb" d="M189.5 161.5a10.2 10.2 0 0 1-3 3 10.5 10.5 0 0 0-3 2.5 224.6 224.6 0 0 1-44-2q-27.603-3.857-51-18.5-1.445-1.295 0-2a41 41 0 0 1 6.5 4 3.65 3.65 0 0 1 1.5-1q2.012 2.258 5 2v3a59.5 59.5 0 0 1 19 6.5 1109 1109 0 0 0 31 5q16.522 1.248 33-.5 2.024-2.175 5-2" style="opacity:1"/><path fill="#150a28" d="M47.5 145.5a112 112 0 0 1 8.5 12q1.224 1.984 3.5 2 1.144 2.643 4 3a66.4 66.4 0 0 0 16 11v2a113.5 113.5 0 0 1-21-13q-1.5-2.5-4-4-5.49-5.483-7-13" style="opacity:1"/><path fill="#373044" d="M54.5 158.5q2.5 1.5 4 4-2.031 4.253 1.5 8l3-2q.75 7.483.5 15a267 267 0 0 0-26 0v-2q1.695-2.722 2-6h8a16.9 16.9 0 0 1 1-8 3.65 3.65 0 0 1 1.5 1q4.359-3.975 4.5-10" style="opacity:1"/><path fill="#9068bd" d="M215.5 165.5q1.5.5 2 2-12.496-.003-9 12 11.268 15.327 11.5-4 .747 4.473.5 9-1.1 1.812-1 4a18.5 18.5 0 0 1-6-.5 57.2 57.2 0 0 1-8.5-9.5q-1.597-12.144 10.5-13" style="opacity:1"/><path fill="#7e5ea7" d="M63.5 162.5a8.4 8.4 0 0 1 4 .5 64.8 64.8 0 0 0 11 8q1.128 1.006 1 2.5a66.4 66.4 0 0 1-16-11" style="opacity:1"/><path fill="#191b2d" d="M21.5 71.5h2a117 117 0 0 0-5 18.5 27.2 27.2 0 0 1 2 5.5h11a61 61 0 0 1-3.5 10 115.3 115.3 0 0 0-11.5 22 749 749 0 0 0-3-11.5l2-3q-.504-1.545-2-1.5-3.171 2.11-4.5 6a202 202 0 0 0 .5 32 295 295 0 0 1-3 24q.064 1.374 1 2h11a21 21 0 0 1 2-7l-1-2q2.26-1.858 3.5 1-.334-4.136.5-8 5.927 8.013 9 18a83 83 0 0 0 5 4v2q-5.868.816-7-5-5.775.601-7 6a32.5 32.5 0 0 1-8-.5 22.5 22.5 0 0 0-8.5-3.5q.201 2.534 1.5 5v1q-3.776-2.09-5-6-2.188-.1-4 1v-40q1.63.18 2 2-2.285 5.78 1 11a13.3 13.3 0 0 1 4.5-3q-.694-3.039-2.5-6a34.1 34.1 0 0 0 1-10q1.482-7.71 1-16 2.665-4.507 3-10h-3q.255-1.983-1-3.5l-6-1.5v-22q6.63.87 9.5 7 .598-.342.5-1a31 31 0 0 0 4.5 3 103 103 0 0 0 7.5-20" style="opacity:1"/><path fill="#3797c2" d="M75.5 137.5a2.43 2.43 0 0 1 2 .5q-3.459 7.476 3 13.5 17.159 14.154 39 19.5 23.94 3.237 48 5.5a145 145 0 0 0 12-1q-38.223 4.145-76-7-6.016-3.94-13-6.5-10.46-6.093-16.5-16.5-1.335-4.496 1.5-8" style="opacity:1"/><path fill="#8b5ac1" d="m97.5 169.5 8 1a123 123 0 0 0 14 4.5 304.4 304.4 0 0 0 60 4.5q.201 2.688-1 5-8.956 1.274-19 1 7.344-2.92 16-2v-3a132 132 0 0 0-26.5 2 89.8 89.8 0 0 0-21.5-2 79.2 79.2 0 0 1-21.5-6 3.94 3.94 0 0 0-2 1q-.907-2.972-3-1-1.004-3.135-3.5-5" style="opacity:1"/><path fill="#895cba" d="M213.5 159.5q-.35 2.343-2 4-11.551 5.456-7 17 3.213 5.963 9 9.5 6.927 2.367 9-4.5v-1q1.465-4.18 1-9h1a61 61 0 0 1-.5 11q-.299 2.853-2.5 4.5-16.038 2.517-20.5-13.5a25.2 25.2 0 0 1 0-10q.621.686 1.5 1a26.6 26.6 0 0 0 2-3.5 102 102 0 0 0 9-5.5" style="opacity:1"/><path fill="#f2ddf9" d="M237.5 171.5q1.401 1.602 1 4a21.1 21.1 0 0 1 9 1 182 182 0 0 1 3 15 11 11 0 0 0-2.5-1 50 50 0 0 1-8.5 4q-.322-2.519 2-3 9.166-3.813 4.5-13a18.5 18.5 0 0 0-3.5-2h-3a478 478 0 0 0-5.5 7q.189-3.897 3-7a12.9 12.9 0 0 0 .5-5" style="opacity:1"/><path fill="#e1ebfc" d="M103.5 168.5q37.777 11.145 76 7 1.668-3.149 2-7h2l-4 19q-1 0-1-1v-2q1.201-2.312 1-5a304.4 304.4 0 0 1-60-4.5 123 123 0 0 1-14-4.5z" style="opacity:1"/><path fill="#ac7cf0" d="M217.5 167.5q1.494-.129 2.5 1a51.3 51.3 0 0 1 1.5 16h-1a41 41 0 0 0-.5-9q-.232 19.327-11.5 4-3.496-12.003 9-12" style="opacity:1"/><path fill="#895dc4" d="M63.5 98.5a4.93 4.93 0 0 1-.5 3l-10 10q-.75 11.99-.5 24h-4q.885 10.529 8 18.5 1.424.926 2.5-.5l1.5-6q1.495-.129 2.5 1a14.7 14.7 0 0 0 1.5 5q5.01 3.516 8 9 2.024 2.175 5 2-.329 1.763 1 3a578 578 0 0 0 27 17 109 109 0 0 1 14 11q8.05 2.154 16 3-10.1-.27-19 1a438 438 0 0 0-33-23.5 8.4 8.4 0 0 0-4-.5v-2q.128-1.494-1-2.5a64.8 64.8 0 0 1-11-8 8.4 8.4 0 0 0-4-.5v-3h-4q-2.276-.016-3.5-2a112 112 0 0 0-8.5-12v-2a95.6 95.6 0 0 1-3-18.5q.015-6.239 3-11.5-.258-1.487 1-2a143 143 0 0 1 15-13" style="opacity:1"/><path fill="#ac77f2" d="M214.5 159.5h-1a102 102 0 0 1-9 5.5 26.6 26.6 0 0 1-2 3.5 3.65 3.65 0 0 1-1.5-1 25.2 25.2 0 0 0 0 10q4.462 16.017 20.5 13.5 2.201-1.647 2.5-4.5.748-5.477.5-11 2.286-2.862 4-6.5a12.9 12.9 0 0 1 5-.5 18.5 18.5 0 0 1-.5 6q-2.034 1.32-4.5 1a118.4 118.4 0 0 1-1 16q3.535.245 7-.5-.714-5.064 5-5.5v-9h3q-.156 3.885 2 7a20.6 20.6 0 0 0-3 8q-2.322.481-2 3 .895.958 2.5 1a41.3 41.3 0 0 1 7.5-3q3.258 13.237-10 11v3l-4 1a4.93 4.93 0 0 0-3 .5q-2.999 6.52-6.5.5-5.494 6.59-13 3a1639 1639 0 0 0-6.5 4.5q-6.081-1.494-12 1a52.2 52.2 0 0 0-6 9.5 223 223 0 0 1-6.5-13 14.8 14.8 0 0 0-6.5-2q.834-5.54-4-8a349 349 0 0 0 4-7q-.362-3.8 3-5h4a53.8 53.8 0 0 1 2-16q4.743-4.567 6-10l2 2a19 19 0 0 0 5-3 3.65 3.65 0 0 1 1.5 1q-.521-8.139 6.5-13.5 9.901-3.377 9 7.5" style="opacity:1"/><path fill="#d2b5e7" d="M227.5 167.5q-.968 1.968-3 3-1.428 2.318-1 5 .465 4.82-1 9a57.2 57.2 0 0 1 1-15q1.683-1.695 4-2" style="opacity:1"/><path fill="#8e56d0" d="M127.5 180.5a89.8 89.8 0 0 1 21.5 2 132 132 0 0 1 26.5-2v3q-8.656-.92-16 2-16.487-.567-32-5" style="opacity:1"/><path fill="#ab7be6" d="M227.5 167.5a32.5 32.5 0 0 1 8 .5q1.984 1.224 2 3.5a12.9 12.9 0 0 1-.5 5q-2.811 3.103-3 7a478 478 0 0 1 5.5-7v9q-5.714.436-5 5.5-3.465.745-7 .5a118.4 118.4 0 0 0 1-16q2.466.32 4.5-1 .743-2.96.5-6a12.9 12.9 0 0 0-5 .5q-1.714 3.638-4 6.5h-1q-.428-2.682 1-5 2.032-1.032 3-3" style="opacity:1"/><path fill="#aa83d7" d="M242.5 176.5a18.5 18.5 0 0 1 3.5 2q4.666 9.187-4.5 13a20.6 20.6 0 0 1 3-8q-2.156-3.115-2-7" style="opacity:1"/><path fill="#f5d6fd" d="m211.5 163.5 4 2q-12.097.856-10.5 13a57.2 57.2 0 0 0 8.5 9.5q2.96.743 6 .5-.1-2.188 1-4h1q0 1 1 1-2.073 6.867-9 4.5-5.787-3.537-9-9.5-4.551-11.544 7-17" style="opacity:1"/><path fill="#313261" d="M44.5 198.5a119 119 0 0 1-13-7v-5h16v12z" style="opacity:1"/><path fill="#ecdbf1" d="M178.5 186.5q0 1 1 1l-1 4q-3.362 1.2-3 5a45.3 45.3 0 0 0-8 10h-1q1.355-6.312 7-11.5-4.135-.875-8 1a430 430 0 0 1-14 6.5h-3q.572-2.146 3-2.5-16.966.44-34 .5-1 0-1-1 8.9-1.27 19-1a217.4 217.4 0 0 0 32-4.5q3.617-2.375 8-3a29 29 0 0 1 3-4.5" style="opacity:1"/><path fill="#484673" d="M31.5 191.5a119 119 0 0 0 13 7q-4.397 3.637-10 5-14.35-6.426-25-18-.196-1.314 1-2a26 26 0 0 0 4.5 4q7.052-3.325 8.5 4z" style="opacity:1"/><path fill="#191034" d="M79.5 175.5a8.4 8.4 0 0 1 4 .5 438 438 0 0 1 33 23.5q0 1 1 1v1h-2a461 461 0 0 0-20-15.5 4.93 4.93 0 0 0-3-.5 147 147 0 0 0-13-10" style="opacity:1"/><path fill="#0b0c0e" d="M166.5 206.5a262 262 0 0 1-26 9l3-2q2.295-2.769 6-3-.553-4.55 2-8a430 430 0 0 0 14-6.5q3.865-1.875 8-1-5.645 5.188-7 11.5" style="opacity:1"/><path fill="#9770c6" d="M250.5 191.5q1.712 4.71.5 10-1.047 1.786-2.5 3-3.567 4.68-9 2v-3q13.258 2.237 10-11a41.3 41.3 0 0 0-7.5 3q-1.605-.042-2.5-1a50 50 0 0 0 8.5-4q1.353.365 2.5 1" style="opacity:1"/><path fill="#302e40" d="M92.5 185.5a4.93 4.93 0 0 1 3 .5 461 461 0 0 1 20 15.5 112.6 112.6 0 0 1 11 14q1.624-1.298.5-3l-3.5-5.5a135 135 0 0 1 20-2 39 39 0 0 0 5-2.5h3q-2.553 3.45-2 8-3.705.231-6 3-15.582 4.912-32 4-.416-6.65-7.5-7-6.285.789-10.5 5.5a170 170 0 0 1-30-1.5v-1q.18-1.63 2-2l20 2 2-1-3-2.5q2-1 0-2a85 85 0 0 0-13-.5q.64-4.932-2-9 2.17-3.177 2-7a72.4 72.4 0 0 0 12-.5q-1.595-1.782-4-1.5a9.86 9.86 0 0 1 1-6q3.384 1.382 3 5 5.418.864 9-3" style="opacity:1"/><path fill="#3f3e67" d="M10.5 189.5q7.183 8.178 17 13-.907 2.289-3.5 3a679 679 0 0 0-13.5-2.5q-4.342-2.687-2.5-7.5l-1 1a12.14 12.14 0 0 1-3.5-4.5q4.015-.252 7-2.5" style="opacity:1"/><path fill="#8168a9" d="M148.5 202.5q-14.497.938-29 .5-.816-1.076-2-1.5v-1q17.034-.06 34-.5-2.428.354-3 2.5" style="opacity:1"/><path fill="#110d1d" d="M115.5 201.5h2q1.184.424 2 1.5 14.503.438 29-.5a39 39 0 0 1-5 2.5q-10.095.255-20 2l3.5 5.5q1.124 1.702-.5 3a112.6 112.6 0 0 0-11-14" style="opacity:1"/><path fill="#302d52" d="m8.5 186.5 2 3q-2.985 2.248-7 2.5a12.14 12.14 0 0 0 3.5 4.5l1-1q-1.842 4.813 2.5 7.5 6.828 1.194 13.5 2.5 2.593-.711 3.5-3a311 311 0 0 1 4 3v13a18.5 18.5 0 0 0-3.5 2l-1-1a8.44 8.44 0 0 0-.5 4h5v6q-3.4.538-5.5-2-4.864 2.644-10.5 2v-6h-7v-7q7.704-.363 13-5.5a11.5 11.5 0 0 0-1-2.5 25.9 25.9 0 0 0-10-1q-2.645-9.582-5 0l-2-7q-1.683 1.695-4 2v-21q1.812-1.1 4-1 1.224 3.91 5 6" style="opacity:1"/><path fill="#1c1e35" d="M8.5 219.5a54 54 0 0 0-9 4v-21q2.317-.305 4-2l2 7q2.355-9.582 5 0 5.098-.48 10 1a11.5 11.5 0 0 1 1 2.5q-5.296 5.137-13 5.5z" style="opacity:1"/><path fill="#0b0d2a" d="M8.5 185.5h1q10.65 11.574 25 18 13.644 7.052 29 10v2a90.6 90.6 0 0 1-13-2.5 282 282 0 0 0-19-7.5 311 311 0 0 0-4-3q-9.817-4.822-17-13l-2-3z" style="opacity:1"/><path fill="#343251" d="M58.5 162.5a113.5 113.5 0 0 0 21 13 147 147 0 0 1 13 10q-3.582 3.864-9 3 .384-3.618-3-5a9.86 9.86 0 0 0-1 6q2.405-.282 4 1.5a72.4 72.4 0 0 1-12 .5q.17 3.823-2 7 2.64 4.068 2 9a85 85 0 0 1 13 .5q2 1 0 2l3 2.5-2 1-20-2q-1.82.37-2 2-15.356-2.948-29-10 5.603-1.363 10-5h3v-12h-16v5h-8q-1.448-7.325-8.5-4a26 26 0 0 1-4.5-4q-1.196.686-1 2h-1q-1.299-2.466-1.5-5a22.5 22.5 0 0 1 8.5 3.5q3.97.746 8 .5 1.225-5.399 7-6 1.132 5.816 7 5a267 267 0 0 1 26 0q.25-7.517-.5-15l-3 2q-3.531-3.747-1.5-8" style="opacity:1"/><path fill="#130e31" d="M167.5 207.5a4.93 4.93 0 0 1 3 .5 73 73 0 0 1 7 7.5q1.76 1.52 2 4-1.812-1.1-4-1 .406-2.82-2-4a1346 1346 0 0 1-6-7" style="opacity:1"/><path fill="#302f34" d="M173.5 214.5q2.406 1.18 2 4 2.188-.1 4 1 .68 9.989 1 20h-4a49 49 0 0 0-2-11 39 39 0 0 1 1-5v-4a32.5 32.5 0 0 1-8-.5q-4.054-2.73-2.5-7.5a3.65 3.65 0 0 1 1.5-1 349 349 0 0 0 7 4" style="opacity:1"/><path fill="#a281d1" d="M219.5 223.5a275 275 0 0 0-8-2.5q-1.966 10.165 0 20.5 4.686 2.391 7.5-2 .749-6.982.5-14 1.152 1.144 1.5 3 .747 4.975.5 10-.091 3.138-3 4.5a41 41 0 0 1-9 .5q.64-8.42-2-16-.327-8.805 8-9.5 2.908 2.148 4 5.5" style="opacity:1"/><path fill="#f6ddfc" d="m248.5 204.5 2 3q1.707 4.206.5 9a41.4 41.4 0 0 0-2.5 6q.047-10.26-8.5-15a13.9 13.9 0 0 0-4 3 64.2 64.2 0 0 0 0 16q1.986 9.226 10.5 4.5a25 25 0 0 0 2-7.5q2.29 4.943-1 9.5a61 61 0 0 1-11 .5q-1.935-8.852-7-16-.166-.925-1-1.5-9.898-1.89-7 7.5-.147 3.08 2 5v3l-2 7a50.5 50.5 0 0 0-.5-10q-.348-1.856-1.5-3v-2q-1.092-3.352-4-5.5-8.327.695-8 9.5-1.34-2.695-4-4-1.877-3.091-5-1-3.41 9.829-1 20a19.2 19.2 0 0 0-6 1v-1q.975-.456 2-1l2-18q4.188-6.478 10.5-2a15 15 0 0 0 3.5-4q4.23-1.791 8.5 0 2.967-3.392 7.5-4 4.588.087 7 4 1.185-5.145 3-10l4-1q5.433 2.68 9-2" style="opacity:1"/><path fill="#816bb2" d="M250.5 207.5q.497 13.665-4 2 1.23-2.417 4-2" style="opacity:1"/><path fill="#343143" d="M31.5 218.5q7.37 2.967 16 4a65 65 0 0 0 16 1v16h16v6q3.755 1.709 8 2 .29 4.245 2 8h-90v-7a43 43 0 0 1 13 4.5q9.487.75 19 .5v-30h-5a8.44 8.44 0 0 1 .5-4l1 1a18.5 18.5 0 0 1 3.5-2" style="opacity:1"/><path fill="#846ca3" d="M221.5 223.5q2.634 1.578 2 5-2.147-1.92-2-5" style="opacity:1"/><path fill="#a97fdc" d="M229.5 217.5q5.065 7.148 7 16a25.7 25.7 0 0 1-6 6q.34-4.615 3-8.5-1.155-2.663-3.5-4.5a41 41 0 0 1-.5-9" style="opacity:1"/><path fill="#886bb7" d="M191.5 242.5v1a41.7 41.7 0 0 1-9 1q2.54-13.063-3-25-.24-2.48-2-4 .026-2.292 2-1.5a20.5 20.5 0 0 0 2.5 4.5 385 385 0 0 0 4.5 23q2.318 1.428 5 1" style="opacity:1"/><path fill="#18152c" d="M8.5 229.5q-1.511 3.792-5 6.5-1.98.292-4-.5v-4q1.11-4.663 5-8l2.5 3 1-1a8.44 8.44 0 0 1 .5 4" style="opacity:1"/><path fill="#936dc4" d="M248.5 222.5v1a25 25 0 0 1-2 7.5q-8.514 4.726-10.5-4.5a64.2 64.2 0 0 1 0-16 13.9 13.9 0 0 1 4-3q8.547 4.74 8.5 15" style="opacity:1"/><path fill="#ab77f5" d="M237.5 210.5q2.951-.359 5.5 1 5.727 8.012 1.5 16.5a12.9 12.9 0 0 1-5 .5 67.8 67.8 0 0 1-2-18" style="opacity:1"/><path fill="#936ec7" d="M203.5 223.5h-4q-.249 8.016.5 16 3.202 2.667 7.5 2-.972 3.129-4.5 3a24.3 24.3 0 0 1-5.5-2q-2.41-10.171 1-20 3.123-2.091 5 1" style="opacity:1"/><path fill="#33304a" d="M31.5 205.5a282 282 0 0 1 19 7.5 90.6 90.6 0 0 0 13 2.5q1.25 1.872 4 2a114 114 0 0 0 18 1q-.605 1.884-2 3.5.85 9.136 4 17.5h16q-.22 3.663 2.5 2a308 308 0 0 1 5.5-22q8.016.249 16-.5 7.13-.82 13-3.5a262 262 0 0 0 26-9h1v1q2.922 3.433 6 7a349 349 0 0 1-7-4 3.65 3.65 0 0 0-1.5 1q-1.554 4.77 2.5 7.5 3.97.746 8 .5v4h-8v16h-8v-3h-16v3h-11a22.4 22.4 0 0 0 3 6.5q4.002.85 8 1.5v3a196 196 0 0 1 16 2v3h-70q-1.71-3.755-2-8-4.245-.291-8-2v-6h-16v-16a65 65 0 0 1-16-1q-8.63-1.033-16-4z" style="opacity:1"/><path fill="#323041" d="M103.5 239.5h-16q-3.15-8.364-4-17.5 1.395-1.616 2-3.5h5q.03 2.464-2 4l1.5 1q3.762-3.123 6.5-7.5 4.905-2.541 10-3 5.265 2.86 3.5 8.5-4.191 8.829-6.5 18" style="opacity:1"/><path fill="#090b1b" d="m143.5 213.5-3 2q-5.87 2.68-13 3.5-7.984.749-16 .5a308 308 0 0 0-5.5 22q-2.72 1.663-2.5-2 2.309-9.171 6.5-18 1.765-5.64-3.5-8.5-5.095.459-10 3-2.738 4.377-6.5 7.5l-1.5-1q2.03-1.536 2-4h-5a114 114 0 0 1-18-1q-2.75-.128-4-2v-1a170 170 0 0 0 30 1.5q4.215-4.711 10.5-5.5 7.084.35 7.5 7 16.418.912 32-4" style="opacity:1"/><path fill="#aa76f4" d="M203.5 223.5q2.66 1.305 4 4v14q-4.298.667-7.5-2a129 129 0 0 1-.5-16z" style="opacity:1"/><path fill="#ab77ed" d="M219.5 223.5v2a98.4 98.4 0 0 1-.5 14q-2.814 4.391-7.5 2-1.966-10.335 0-20.5 3.842 1.134 8 2.5" style="opacity:1"/><path fill="#372f4b" d="M8.5 219.5v4h7v6q5.635.644 10.5-2 2.1 2.538 5.5 2v10h-16v-8q-4.065.472-7-2a8.44 8.44 0 0 0-.5-4l-1 1-2.5-3q-3.89 3.337-5 8v-8a54 54 0 0 1 9-4" style="opacity:1"/><path fill="#895ec5" d="M175.5 196.5a349 349 0 0 1-4 7q4.834 2.46 4 8 3.49.247 6.5 2a223 223 0 0 0 6.5 13 52.2 52.2 0 0 1 6-9.5q5.919-2.494 12-1a1639 1639 0 0 1 6.5-4.5q7.506 3.59 13-3 3.501 6.02 6.5-.5a4.93 4.93 0 0 1 3-.5 79.5 79.5 0 0 0-3 10q-2.412-3.913-7-4-4.533.608-7.5 4-4.27-1.791-8.5 0a15 15 0 0 1-3.5 4q-6.312-4.478-10.5 2l-2 18q-1.025.544-2 1-2.682.428-5-1a385 385 0 0 1-4.5-23 20.5 20.5 0 0 1-2.5-4.5q-1.974-.792-2 1.5a73 73 0 0 0-7-7.5 4.93 4.93 0 0 0-3-.5v-1a45.3 45.3 0 0 1 8-10" style="opacity:1"/><path fill="#a172e5" d="M229.5 217.5a41 41 0 0 0 .5 9q2.345 1.837 3.5 4.5-2.66 3.885-3 8.5h-7v-11q.634-3.422-2-5-2.898-9.39 7-7.5.834.575 1 1.5" style="opacity:1"/><path fill="#312e39" d="M172.5 223.5a122 122 0 0 0-2.5 20q-2.47 1.918-3.5 5-4.273.9-7 4a196 196 0 0 0-16-2v-3a168 168 0 0 1-8-1.5 22.4 22.4 0 0 1-3-6.5h11v-3h16v3h8v-16z" style="opacity:1"/><path fill="#f6ebfa" d="M207.5 227.5q2.64 7.58 2 16a41 41 0 0 0 9-.5q2.909-1.362 3-4.5l2-7v8h6q-2.647 1.442-6 1 .16 3.604-3 5.5-6.913 2.947-13-1.5a9.4 9.4 0 0 1-3 3q.017-1.412-1.5-2l-3 1q-5.31-4.469-9.5 1-3.527-2.594-8-2v-1a41.7 41.7 0 0 0 9-1 19.2 19.2 0 0 1 6-1 24.3 24.3 0 0 0 5.5 2q3.528.129 4.5-3z" style="opacity:1"/><path fill="#1f1c2f" d="M179.5 219.5q5.54 11.937 3 25v1q-2.754 4.024-3 9-3.95-6.726-3-15h4a554 554 0 0 0-1-20" style="opacity:1"/><path fill="#2f2d39" d="M8.5 229.5q2.935 2.472 7 2v8h16v14q-9.513.25-19-.5a43 43 0 0 0-13-4.5v-13q2.02.792 4 .5 3.489-2.708 5-6.5" style="opacity:1"/><path fill="#191721" d="M172.5 223.5h3a39 39 0 0 0-1 5 49 49 0 0 1 2 11q-.95 8.274 3 15v1h-20v-3q2.727-3.1 7-4 1.03-3.082 3.5-5a122 122 0 0 1 2.5-20" style="opacity:1"/></svg>