<svg width="85mm" height="85mm" viewBox="0 0 85 85" xmlns="http://www.w3.org/2000/svg"><g transform="translate(-61.232 -93.318)"><circle style="fill:#000;fill-opacity:1;stroke:none;stroke-width:.550929;stroke-linecap:square;stroke-linejoin:round" cx="103.732" cy="135.818" r="42.5"/><path style="fill:#01cce7;fill-opacity:1;stroke:none;stroke-width:.264583px;stroke-linecap:butt;stroke-linejoin:miter;stroke-opacity:1" d="M115.604 135.211s1.884-2.897 4.683-1.12c0 0-1.023 1.614-1.13 2.314-.108.7 2.098 14.102-3.123 21.852-5.22 7.751-22.175 3.714-22.175 3.714s-7.835-2.003-9.515-13.381l2.767 4.258s-.851-6.387.213-9.368c1.065-2.98 5.04-5.89 5.04-5.89s11.283-7.948 4.754-14.62c0 0 6.054-1.26 6.79 8.344 0 0 3.719-5.477 1.716-16.43 0 0 11.272 5.301 9.98 20.327z"/><path style="fill:#00ffa3;fill-opacity:1;stroke:none;stroke-width:.264583px;stroke-linecap:butt;stroke-linejoin:miter;stroke-opacity:1" d="M100.099 137.046s2.883.721 3.05 4.548c0 0 4.714-.093 7.21-9.299 0 0 3.61 7.585 4.442 15.167.83 7.56-1.103 15.118-12.13 15.156 0 0-7.952-.109-10.337-4.849-3.19-6.344 5.38-14.863 5.38-14.863s1.608-1.127 2.385-5.86z"/><path style="fill:#d625fd;fill-opacity:1;stroke:none;stroke-width:.264583px;stroke-linecap:butt;stroke-linejoin:miter;stroke-opacity:1" d="M99.452 152.469s.462 2.123 1.932 2.123 2.695-1.388 1.579-5.852c0 0 5.008 1.143 5.144 6.86.136 5.715-3.239 6.341-3.239 6.341s-3.92 1.035-6.233-1.116c-2.313-2.15.817-8.356.817-8.356z"/></g></svg>