<svg width="32" height="32" viewBox="0 0 32 32" fill="none" xmlns="http://www.w3.org/2000/svg">
<circle cx="16" cy="16" r="16" fill="black"/>
<path fill-rule="evenodd" clip-rule="evenodd" d="M18.5255 11.4653C18.1021 11.4653 17.7588 11.8086 17.7588 12.2321V12.7708H19.056V11.4653H18.5255ZM15.8217 14.7206H14.5244V16.0261H15.8217V14.7206ZM19.056 14.7206H17.7588V16.0261H19.056V14.7206ZM11.2891 14.7207H12.5863V16.0261H11.2891V14.7207ZM11.2891 12.2324C11.2891 11.809 11.6323 11.4657 12.0558 11.4657H12.5863V12.7712H11.2891V12.2324ZM19.056 17.9761H17.7588V19.2816H19.056V17.9761ZM11.2891 17.9757H12.5863V19.2812H11.2891V17.9757ZM15.8217 16.3741H14.5244V17.6796H15.8217V16.3741ZM17.7588 16.3743H19.056V17.6798H17.7588V16.3743ZM12.5863 16.3742H11.2891V17.6797H12.5863V16.3742ZM17.7588 13.1191H19.056V14.4246H17.7588V13.1191ZM12.5863 13.119H11.2891V14.4245H12.5863V13.119ZM17.7588 19.6299H19.056V20.9354H18.5255C18.1021 20.9354 17.7588 20.5921 17.7588 20.1687V19.6299ZM12.5863 19.63H11.2891V20.1687C11.2891 20.5922 11.6323 20.9355 12.0558 20.9355H12.5863V19.63ZM16.167 14.7206H17.4642V16.0261H16.167V14.7206ZM20.6987 14.7206H19.4015V16.026H20.6987V14.7206ZM12.9326 14.7206H14.2299V16.0261H12.9326V14.7206ZM19.932 11.4653H19.4015V12.7708H20.6987V12.2321C20.6987 11.8086 20.3554 11.4653 19.932 11.4653ZM12.9326 11.4653H13.4631C13.8866 11.4653 14.2299 11.8086 14.2299 12.2321V12.7708H12.9326V11.4653ZM20.6987 17.9762H19.4015V19.2816H20.6987V17.9762ZM12.9326 17.9756H14.2299V19.2811H12.9326V17.9756ZM17.4642 16.3743H16.167V17.6798H17.4642V16.3743ZM19.4015 16.3743H20.6987V17.6798H19.4015V16.3743ZM14.2299 16.3741H12.9326V17.6796H14.2299V16.3741ZM19.4015 13.1191H20.6987V14.4246H19.4015V13.1191ZM14.2299 13.119H12.9326V14.4245H14.2299V13.119ZM19.4015 19.6299H20.6987V20.1687C20.6987 20.5921 20.3554 20.9354 19.932 20.9354H19.4015V19.6299ZM14.2299 19.63H12.9326V20.9355H13.4631C13.8866 20.9355 14.2299 20.5922 14.2299 20.1687V19.63Z" fill="url(#paint0_radial_600_56224)"/>
<path fill-rule="evenodd" clip-rule="evenodd" d="M18.1911 5.52128C17.9698 5.76855 17.6373 5.87933 17.3092 5.8367C14.1063 5.42047 10.7592 6.53898 8.43162 9.13209C6.0962 11.7339 5.33219 15.2129 6.08062 18.3863C6.15699 18.7101 6.08226 19.0544 5.86105 19.3016C5.38737 19.831 4.53238 19.6695 4.35887 18.9785C3.40888 15.1952 4.29427 11.0195 7.08632 7.909C9.86921 4.80867 13.89 3.49769 17.7148 4.05157C18.4158 4.15308 18.6648 4.99188 18.1911 5.52128ZM13.2081 26.395C13.4407 26.1351 13.7957 26.028 14.1377 26.0913C17.4997 26.7134 21.0955 25.6196 23.554 22.8807C26.0203 20.1331 26.7341 16.4073 25.765 13.0962C25.6667 12.7606 25.7355 12.3942 25.968 12.1343C26.4257 11.6227 27.2511 11.7576 27.4538 12.4154C28.6682 16.3562 27.8445 20.8226 24.8993 24.1038C21.9632 27.3748 17.6492 28.654 13.6412 27.8528C12.9699 27.7186 12.7504 26.9066 13.2081 26.395Z" fill="url(#paint1_radial_600_56224)"/>
<defs>
<radialGradient id="paint0_radial_600_56224" cx="0" cy="0" r="1" gradientUnits="userSpaceOnUse" gradientTransform="translate(15.9939 16.2004) rotate(126.863) scale(18.1924 22.195)">
<stop stop-color="#D55BFF"/>
<stop offset="1" stop-color="#609FFF" stop-opacity="0.2"/>
</radialGradient>
<radialGradient id="paint1_radial_600_56224" cx="0" cy="0" r="1" gradientUnits="userSpaceOnUse" gradientTransform="translate(15.9987 15.9998) rotate(75.4673) scale(44.3988 51.4916)">
<stop stop-color="#D55BFF"/>
<stop offset="1" stop-color="#609FFF" stop-opacity="0.2"/>
</radialGradient>
</defs>
</svg>
