<svg width="85mm" height="85mm" viewBox="0 0 85 85" version="1.1" id="svg9431" xmlns:xlink="http://www.w3.org/1999/xlink" xmlns="http://www.w3.org/2000/svg"><defs id="defs9428"><linearGradient id="linear-gradient" x1="26.89" y1="67.78" x2="26.89" y2="14.29" gradientUnits="userSpaceOnUse"><stop offset=".7" stop-color="#cfe4f3" id="stop26460"/><stop offset="1" stop-color="#6bc3f9" id="stop26462"/></linearGradient><linearGradient id="linear-gradient-2" x1="27.4" y1="67.78" x2="27.4" gradientUnits="userSpaceOnUse"><stop offset="0" stop-color="#b18cf9" id="stop26465"/><stop offset="1" stop-color="#4f3dd5" id="stop26467"/></linearGradient><linearGradient id="linear-gradient-3" x1="26.9" y1="67.75" x2="26.9" y2="14.11" gradientUnits="userSpaceOnUse"><stop offset="0" stop-color="#b1d6f9" id="stop26470"/><stop offset="1" stop-color="#9193ee" id="stop26472"/></linearGradient><linearGradient id="linear-gradient-4" x1="26.89" y1="67.78" x2="26.89" y2="14.29" gradientUnits="userSpaceOnUse"><stop offset="0" stop-color="#cfe4f3" id="stop26475"/><stop offset="1" stop-color="#6bc3f9" id="stop26477"/></linearGradient><linearGradient id="linear-gradient-5" x1="16.86" y1="68.33" x2="16.86" y2="14.4" xlink:href="#linear-gradient-3"/><linearGradient id="linear-gradient-6" x1="26.89" y1="67.78" x2="26.89" y2="15.71" xlink:href="#linear-gradient-3"/><linearGradient id="linear-gradient-7" x1="-3.01" y1="63.92" x2="57.04" y2="3.88" gradientUnits="userSpaceOnUse"><stop offset="0" stop-color="#a684f8" id="stop26482"/><stop offset=".5" stop-color="#8272fa" id="stop26484"/><stop offset="1" stop-color="#90aefb" id="stop26486"/></linearGradient><linearGradient xlink:href="#linear-gradient-3" id="linearGradient26541" gradientUnits="userSpaceOnUse" x1="26.9" y1="67.75" x2="26.9" y2="14.11"/><clipPath id="clip-path"><path d="M14.14 28.22 22 9.72a2.55 2.55 0 0 1 1-1.1L35.54.92a.59.59 0 0 1 .85.73l-3.18 8.19L40 25l2.34-6.08a2.69 2.69 0 0 1 1-1.16L48 14.91a.59.59 0 0 1 .86.67l-1 6.57 5.09 29.74a4.51 4.51 0 0 1-2.54 4.85L28.66 66.88a4.48 4.48 0 0 1-3.82 0L3.32 56.73a4.51 4.51 0 0 1-2.53-4.8L4.84 20.5a2.27 2.27 0 0 1 1-1.4l6.6-3.93a.58.58 0 0 1 .85.71l-1.51 6.46z" id="path26457" style="fill:none"/></clipPath><style id="style26455">.cls-13{fill:#fff;opacity:.3}</style></defs><g id="layer1" transform="translate(-61.232 -93.318)"><g id="Layer_1-2" data-name="Layer 1" style="isolation:isolate" transform="matrix(.26458 0 0 .26458 76.626 119.352)"><g clip-path="url(#clip-path)" id="g26531" transform="matrix(4.82109 0 0 4.82109 -26.988 -102.15)" style="clip-path:url(#clip-path)"><path id="polygon26509" style="fill:url(#linear-gradient)" d="M26.75 67.78.25 55.28 4.89 19.7l9.05-5.41-2.12 8.05 2.54 6.42 39.16 26.52z"/><path d="M33.21 9.84 37.06 0 22.84 8.54a3 3 0 0 0-1 1.32l-7.4 17.72L1.27 56.36l25.48 11.42 26.78-12.5z" id="path26511" style="fill:url(#linear-gradient-2)"/><path id="polygon26513" style="fill:url(#linearGradient26541)" d="m53.53 55.26-5.68-33.13 1.3-8.02-6.51 4.09-8.98 23.63L.26 55.26l26.5 12.49z"/><path id="polygon26515" style="fill:url(#linear-gradient-4);mix-blend-mode:multiply" d="M26.75 67.78.25 55.28l4.59-35.76 9.1-5.23-2.12 8.05 2.32 5.88 39.38 27.06z"/><path id="polygon26517" style="fill:url(#linear-gradient-5)" d="m26.5 68.33.25-.55 6.97-26.11L0 55.36z"/><path id="polygon26519" style="fill:url(#linear-gradient-6);opacity:.7;mix-blend-mode:screen" d="m53.52 55.28-19.8-13.61L.25 55.28l26.5 12.5z"/><path id="rect26521" style="fill:url(#linear-gradient-7);mix-blend-mode:hue" d="M.48.83h52.63v66.58H.48z"/><path d="M28.34 66.58a4 4 0 0 1-3.29 0L1.35 55.45a4.49 4.49 0 0 0 2 1.81L24.84 67.4a4.48 4.48 0 0 0 3.82 0L50.4 57.27a4.5 4.5 0 0 0 1.94-1.74z" id="path26523" style="fill:#311b98;opacity:.2"/><path class="cls-13" d="m43.56 17.91 5.07-3.09a.58.58 0 0 0-.82-.26l-4.71 2.87a2.69 2.69 0 0 0-1 1.16l-2.07 6.29 2.43-5.72a2.46 2.46 0 0 1 1.1-1.25z" id="path26525"/><path class="cls-13" d="m23.3 8.76 13.06-8c0-.43-.75-.56-1.17-.31L22.06 8.53a.79.79 0 0 0-.19.22l-7.59 19.06 7.77-17.56a2.7 2.7 0 0 1 1.25-1.49z" id="path26527"/><path class="cls-13" d="m6 19.4 7-4.4a.58.58 0 0 0-.82-.25l-6.6 3.94a2.27 2.27 0 0 0-1 1.4L.83 51.64 5.06 20.8A1.92 1.92 0 0 1 6 19.4z" id="path26529"/></g></g></g></svg>