<svg width="196" height="226" fill="none" xmlns="http://www.w3.org/2000/svg"><path d="m98 169.501-49-28.255-49 28.245 49 28.254 49-28.244z" fill="url(#a)"/><path fill-rule="evenodd" clip-rule="evenodd" d="m48.996 197.745 49 28.255v-56.5l-49 28.245z" fill="#11FA98"/><path fill-rule="evenodd" clip-rule="evenodd" d="m147 141.254-49 28.245v56.499l98-56.5-49-28.244z" fill="url(#b)"/><path fill-rule="evenodd" clip-rule="evenodd" d="m98 113.001 49-28.245 48.992 28.25.008-.005v56.5l-98-56.5z" fill="url(#c)"/><path d="M0 56.49v56.501l49 28.255L98 113 49 84.746 0 56.49z" fill="url(#d)"/><path d="M98 56.5V0L0 56.49l49 28.256L98 56.5z" fill="url(#e)"/><path fill-rule="evenodd" clip-rule="evenodd" d="m98 56.5 49-28.245L98 0v56.5z" fill="#11FA98"/><path fill-rule="evenodd" clip-rule="evenodd" d="m196 56.51-49 28.246L98 56.5l49-28.245 49 28.255z" fill="url(#f)"/><defs><linearGradient id="a" x1="114.715" y1="-187.471" x2="289.574" y2="-82.894" gradientUnits="userSpaceOnUse"><stop stop-color="#EDF1F9"/><stop offset="1" stop-color="#A5ACBC"/></linearGradient><linearGradient id="b" x1="220.84" y1="62.144" x2="-57.88" y2="181.769" gradientUnits="userSpaceOnUse"><stop stop-color="#222935"/><stop offset="1" stop-color="#EDF1F9"/></linearGradient><linearGradient id="c" x1="98.046" y1="-114.165" x2="234.844" y2="214.033" gradientUnits="userSpaceOnUse"><stop stop-color="#EDF1F9"/><stop offset="1" stop-color="#A5ACBC"/></linearGradient><linearGradient id="d" x1="22.62" y1="-129.121" x2="176.483" y2="212.629" gradientUnits="userSpaceOnUse"><stop stop-color="#EDF1F9"/><stop offset="1" stop-color="#A5ACBC"/></linearGradient><linearGradient id="e" x1="-61.396" y1="228.028" x2="250.636" y2="-12.641" gradientUnits="userSpaceOnUse"><stop stop-color="#222935"/><stop offset="1" stop-color="#EDF1F9"/></linearGradient><linearGradient id="f" x1="63.007" y1="-16.939" x2="181.678" y2="11.379" gradientUnits="userSpaceOnUse"><stop stop-color="#EDF1F9"/><stop offset="1" stop-color="#A5ACBC"/></linearGradient></defs></svg>