<svg width="30" height="30" viewBox="0 0 30 30" fill="none" xmlns="http://www.w3.org/2000/svg"><path fill-rule="evenodd" clip-rule="evenodd" d="M10.743.038c-.238.087-.316.176-1.828 2.077-.223.28-.77.994-1.21 1.576-1.294 1.72-2.8 3.968-3.596 5.373-.352.62-.46.825-.872 1.652-.574 1.147-.636 1.286-.978 2.188-.489 1.284-.763 2.613-.759 3.682.002.52.079 1.516.147 1.912.018.099.043.253.058.344.125.783.468 2.008.75 2.672.05.118.115.276.145.351.107.267.582 1.187.794 1.54.823 1.366 1.886 2.603 3.015 3.508.323.26.878.673 1.126.838.572.384 1.487.881 2.11 1.147.973.417 2.11.753 3.043.9.094.016.25.041.344.058.381.066 1.44.144 1.966.144.291 0 1.249-.054 1.55-.087a13.858 13.858 0 004.536-1.35c.055-.032.21-.114.345-.183.134-.07.353-.194.488-.277l.387-.24c.67-.412 1.737-1.279 2.354-1.912.75-.769 1.492-1.73 1.965-2.546l.217-.372c.606-1.024 1.246-2.822 1.45-4.07l.058-.343c.04-.237.079-.556.12-.974.035-.374.044-1.581.013-1.863-.065-.585-.184-1.15-.397-1.89-.203-.709-.424-1.297-.86-2.29-.195-.444-.866-1.743-1.222-2.367a51.582 51.582 0 00-2.192-3.453l-.457-.66c-.275-.398-.348-.498-1.07-1.46a65.254 65.254 0 00-1.735-2.236C19.415.02 19.518.133 19.3.06c-.181-.06-.197-.062-.341-.019-.212.063-.272.11-.356.277-.142.285-.09.487.225.876 1.551 1.913 2.185 2.731 3.348 4.317.359.49 1.533 2.22 1.808 2.665.366.59.89 1.464 1.015 1.69l.323.588c.41.741.972 1.932 1.218 2.578l.16.42c.323.838.547 1.751.619 2.518.072.776-.011 1.986-.203 2.93-.246 1.217-.778 2.664-1.308 3.56l-.218.372c-.695 1.197-1.897 2.538-3.127 3.487-.52.401-1.227.837-1.922 1.183-.683.342-1.005.478-1.583.67a11.35 11.35 0 01-2.035.505c-.119.018-.242.04-.273.048-.202.048-.818.078-1.65.078-1.052 0-1.11-.003-1.931-.128-1.492-.228-3.103-.819-4.44-1.629a14.053 14.053 0 01-1.415-.997c-.576-.492-.696-.603-.999-.915-.987-1.018-1.632-1.922-2.246-3.147a12.24 12.24 0 01-1.231-4.17c-.046-.435-.063-1.79-.027-2.02.07-.438.155-.873.222-1.146.103-.415.502-1.57.684-1.977l.182-.411c.149-.338.837-1.713 1.02-2.039a93.624 93.624 0 01.505-.888c.104-.185.195-.333.49-.802l.267-.43c.125-.203 1.14-1.716 1.432-2.137A86.456 86.456 0 0110.779 1.7c.564-.685.652-.807.688-.96a.569.569 0 00-.329-.677c-.163-.077-.241-.081-.395-.025zm1.8 1.916c-.106.05-.202.135-.372.333-.127.147-.288.333-.36.414-.07.08-.238.28-.372.445a69.01 69.01 0 00-3.557 4.65l-.268.394c-.258.373-.93 1.43-1.177 1.848-.474.805-.575.99-.962 1.767-.431.866-.508 1.037-.748 1.672-.423 1.117-.648 2.182-.643 3.051.002.457.073 1.302.145 1.734.108.643.33 1.465.554 2.063.15.397.45 1.055.596 1.304l.234.4c.77 1.325 1.985 2.609 3.3 3.488a10.71 10.71 0 004.435 1.724l.301.047c.24.038.94.08 1.35.08 1.756 0 3.364-.38 4.922-1.162a12.9 12.9 0 001.322-.78 14.42 14.42 0 001.49-1.234c.529-.528 1.249-1.454 1.66-2.133.32-.533.784-1.538.978-2.121.1-.303.304-1.052.324-1.189a7.33 7.33 0 01.06-.33c.105-.521.16-1.14.163-1.833.001-.54-.005-.64-.073-1.075-.1-.647-.293-1.349-.575-2.092-.322-.848-.937-2.108-1.47-3.01-.093-.156-.214-.362-.269-.457a58.242 58.242 0 00-1.473-2.27c-.11-.162-.305-.439-.434-.616l-.421-.581a66.075 66.075 0 00-2.215-2.837l-.49-.591c-.496-.604-.838-.992-.922-1.046-.228-.148-.445-.157-.666-.028-.227.133-.34.475-.235.713.047.107.133.214 1.08 1.344 1.605 1.914 2.564 3.178 3.757 4.952.504.75.565.846.96 1.49.38.622.68 1.166 1.03 1.867.563 1.129.85 1.853 1.057 2.664.196.77.237 1.282.174 2.16-.047.652-.1.98-.258 1.605a7.373 7.373 0 01-.391 1.218c-.383.963-.955 1.948-1.513 2.599-.587.686-.644.745-1.174 1.213-.335.296-.896.707-1.303.953-1.253.758-2.445 1.168-4.034 1.387-.205.028-1.919.028-2.124 0-1.078-.149-1.86-.358-2.756-.737a6.92 6.92 0 01-1.144-.583c-.74-.44-1.195-.801-1.901-1.506-.674-.672-1.076-1.17-1.43-1.77l-.276-.468c-.164-.278-.205-.366-.49-1.055a9.616 9.616 0 01-.619-2.412c-.047-.408-.063-1.593-.024-1.82a9.135 9.135 0 01.401-1.575c.164-.455.232-.634.31-.814a52 52 0 01.996-2.009l.476-.802c1.164-1.959 2.789-4.181 4.877-6.672l.816-.974c.146-.175.19-.285.19-.475 0-.273-.084-.406-.33-.522a.499.499 0 00-.488 0zm1.999 1.76c-.215.216-.526.547-.692.734-.166.187-.385.432-.488.545a20.5 20.5 0 00-.402.46c-.118.14-.267.314-.331.386-.399.448-1.634 2-2.17 2.723a29.777 29.777 0 00-1.22 1.737c-.634.96-.685 1.04-.816 1.272-.058.103-.165.29-.238.415a29.91 29.91 0 00-.762 1.508c-.307.695-.587 1.548-.667 2.031-.04.247-.09.772-.089.946.001.209.056.912.09 1.146a8.332 8.332 0 001.103 3.09c.184.309.655.954.862 1.182.065.072.187.21.27.307.132.153.4.39.94.826.437.355 1.372.887 1.984 1.13a8.468 8.468 0 002.264.548c.547.057 1.694.03 2.096-.049l.33-.061c.326-.06.905-.218 1.205-.329a8.169 8.169 0 002.599-1.503 8.416 8.416 0 002.523-3.714c.093-.28.241-.906.309-1.298.086-.501.132-1.48.083-1.776l-.063-.387c-.149-.904-.653-2.207-1.299-3.353a20.69 20.69 0 00-.736-1.246c-.91-1.477-2.508-3.596-4.145-5.5a60.646 60.646 0 00-1.366-1.521 67.699 67.699 0 01-.45-.483c-.23-.253-.25-.247-.724.233zm.803 1.633c.149.154.38.407.514.563.135.155.303.35.374.43l.344.404c.119.14.268.312.331.384.56.63 1.48 1.815 2.265 2.912.593.83.675.949.793 1.144.067.11.182.291.255.401.135.204.453.734.644 1.075.151.27.677 1.33.784 1.578.127.297.37 1.038.427 1.306.054.251.107.702.105.898-.002.213-.06.92-.089 1.09-.097.563-.21.963-.419 1.49a5.868 5.868 0 01-.513 1.055c-.58.972-1.601 1.984-2.53 2.508a6.232 6.232 0 01-1.02.49 6.283 6.283 0 01-1.234.357c-.181.033-.392.074-.468.089-.176.035-1.648.036-1.808.002a9.438 9.438 0 00-.322-.06c-1.377-.235-2.758-.944-3.784-1.945a7.215 7.215 0 01-1.89-3.184 6.545 6.545 0 01-.141-.574l-.06-.372c-.047-.3-.063-1.334-.023-1.533.133-.661.394-1.464.63-1.933a2.18 2.18 0 00.1-.224c.039-.126.476-.928.87-1.597.814-1.382 2.228-3.32 3.639-4.986a50.928 50.928 0 011.22-1.404c.51-.58.576-.644.658-.644.06 0 .138.063.348.28z" fill="url(#paint0_linear)"/><defs><linearGradient id="paint0_linear" x1="15" y1="0" x2="15" y2="30" gradientUnits="userSpaceOnUse"><stop stop-color="#86E7F2"/><stop offset="1" stop-color="#00B8D0"/></linearGradient></defs></svg>